<svg xmlns="http://www.w3.org/2000/svg" width="40" height="40" viewBox="0 0 40 40" fill="none">
  <rect width="40" height="40" rx="5" fill="#A6C8F4"/>
  <path d="M32.2975 40.0003C32.2975 40.0003 32.2975 37.2484 32.2975 33.1043C32.2975 28.3767 26.5119 26.2593 26.5119 26.2593H14.0059C14.0059 26.2593 8.22028 28.3767 8.22028 33.1043C8.22028 37.2484 8.22028 40.0003 8.22028 40.0003" fill="#F4F4F4"/>
  <path d="M26.5119 26.2593L24.1042 26.8258C24.1042 26.8258 29.8898 28.3101 29.8898 33.6708C29.8898 36.5587 29.8898 39.1335 29.8898 40.0003H32.2975C32.2975 40.0003 32.2975 37.2484 32.2975 33.1043C32.2975 28.3767 26.5119 26.2593 26.5119 26.2593Z" fill="#A6C8F4"/>
  <path fill-rule="evenodd" clip-rule="evenodd" d="M13.9083 25.9932C13.9084 25.9931 13.9085 25.9931 14.0059 26.2591C14.1032 26.5251 14.1033 26.5251 14.1034 26.525L14.1029 26.5252L14.1006 26.5261L14.0897 26.5302C14.0798 26.5339 14.0647 26.5397 14.0446 26.5476C14.0044 26.5634 13.9446 26.5875 13.8679 26.6201C13.7146 26.6851 13.4942 26.7838 13.229 26.9169C12.698 27.1836 11.9915 27.5867 11.2865 28.1327C9.87079 29.2292 8.50354 30.8673 8.50354 33.1041V40C8.50354 40 8.50354 40.0001 8.22027 40.0001C7.93701 40.0001 7.93701 40.0001 7.93701 40.0001V33.1041C7.93701 30.6133 9.46257 28.8288 10.9396 27.6848C11.6811 27.1105 12.421 26.6888 12.9748 26.4107C13.252 26.2714 13.4836 26.1677 13.6466 26.0985C13.7282 26.0639 13.7927 26.0379 13.8373 26.0204C13.8596 26.0116 13.8769 26.005 13.8889 26.0004C13.8949 25.9982 13.8995 25.9964 13.9028 25.9952L13.9067 25.9937L13.9079 25.9933L13.9083 25.9932Z" fill="#000E26"/>
  <path fill-rule="evenodd" clip-rule="evenodd" d="M26.4144 26.525C26.4145 26.5251 26.4146 26.5251 26.5119 26.2591C26.6093 25.9931 26.6094 25.9931 26.6095 25.9932L26.6099 25.9933L26.6111 25.9937L26.615 25.9952C26.6183 25.9964 26.6229 25.9982 26.6289 26.0004C26.6409 26.005 26.6582 26.0116 26.6805 26.0204C26.7251 26.0379 26.7896 26.0639 26.8712 26.0985C27.0342 26.1677 27.2658 26.2714 27.543 26.4107C28.0968 26.6888 28.8367 27.1105 29.5782 27.6848C31.0552 28.8288 32.5808 30.6133 32.5808 33.1041V40C32.5808 40 32.5808 40.0001 32.2975 40.0001C32.0143 40.0001 32.0143 40.0001 32.0143 40.0001V33.1041C32.0143 30.8673 30.647 29.2292 29.2313 28.1327C28.5263 27.5867 27.8198 27.1836 27.2888 26.9169C27.0236 26.7838 26.8032 26.6851 26.6499 26.6201C26.5732 26.5875 26.5134 26.5634 26.4732 26.5476C26.4531 26.5397 26.438 26.5339 26.4281 26.5302L26.4172 26.5261L26.4149 26.5252L26.4144 26.525Z" fill="#000E26"/>
  <path d="M20.2589 37.0256C21.8233 37.0256 23.0915 35.7574 23.0915 34.193C23.0915 32.6286 21.8233 31.3604 20.2589 31.3604C18.6945 31.3604 17.4263 32.6286 17.4263 34.193C17.4263 35.7574 18.6945 37.0256 20.2589 37.0256Z" fill="#F4F4F4"/>
  <path d="M20.2589 31.3604C20.1144 31.3604 19.9728 31.3745 19.834 31.3958C21.1965 31.6011 22.2417 32.7738 22.2417 34.193C22.2417 35.6121 21.1965 36.7848 19.834 36.9902C19.9728 37.0114 20.1144 37.0256 20.2589 37.0256C21.8239 37.0256 23.0915 35.758 23.0915 34.193C23.0915 32.6279 21.8239 31.3604 20.2589 31.3604Z" fill="#A6C8F4"/>
  <path fill-rule="evenodd" clip-rule="evenodd" d="M20.2589 31.6437C18.8509 31.6437 17.7095 32.7851 17.7095 34.193C17.7095 35.601 18.8509 36.7424 20.2589 36.7424C21.6669 36.7424 22.8082 35.601 22.8082 34.193C22.8082 32.7851 21.6669 31.6437 20.2589 31.6437ZM17.143 34.193C17.143 32.4722 18.538 31.0771 20.2589 31.0771C21.9797 31.0771 23.3748 32.4722 23.3748 34.193C23.3748 35.9139 21.9797 37.3089 20.2589 37.3089C18.538 37.3089 17.143 35.9139 17.143 34.193Z" fill="#000E26"/>
  <path d="M30.1306 13.7231L30.5951 13.699C31.7664 13.6381 32.8003 15.1706 32.9023 17.1237C33.0043 19.0767 32.1375 20.7097 30.9662 20.7706L30.5017 20.7947" fill="#F4F4F4"/>
  <path d="M32.9023 17.1237C32.8003 15.1706 31.7678 13.6381 30.5951 13.699L30.1943 13.7203C31.2339 13.9129 32.1007 15.3448 32.1941 17.1237C32.289 18.9408 31.5455 20.4789 30.4988 20.7352L30.5016 20.7961L30.9662 20.7721C32.1375 20.7083 33.0043 19.0753 32.9023 17.1237Z" fill="#A6C8F4"/>
  <path fill-rule="evenodd" clip-rule="evenodd" d="M31.9148 14.8145C31.5268 14.2388 31.0572 13.9587 30.6098 13.982L30.1452 14.0061L30.1159 13.4403L30.5804 13.4162C30.5804 13.4162 30.5804 13.4162 30.5804 13.4162C31.3043 13.3786 31.9374 13.8343 32.3846 14.4979C32.8355 15.1669 33.132 16.0899 33.1852 17.109C33.2384 18.1279 33.0402 19.0771 32.6619 19.7896C32.2868 20.4963 31.7051 21.016 30.9809 21.0536L30.5163 21.0777L30.487 20.5119L30.9515 20.4879C31.3986 20.4646 31.836 20.1373 32.1615 19.524C32.484 18.9165 32.6682 18.0726 32.6194 17.1385C32.5706 16.2045 32.2992 15.3848 31.9148 14.8145Z" fill="#000E26"/>
  <path d="M10.3872 13.7231L9.92268 13.699C8.75139 13.6381 7.71749 15.1706 7.61551 17.1237C7.51354 19.0767 8.38032 20.7097 9.55161 20.7706L10.0162 20.7947" fill="#F4F4F4"/>
  <path fill-rule="evenodd" clip-rule="evenodd" d="M9.93738 13.4162C9.93736 13.4162 9.93739 13.4162 9.93738 13.4162L10.4019 13.4403L10.3726 14.0061L9.90801 13.982C9.46063 13.9587 8.99103 14.2388 8.60298 14.8145C8.21862 15.3848 7.94715 16.2045 7.89838 17.1385C7.84961 18.0726 8.0338 18.9165 8.35627 19.524C8.68184 20.1373 9.11918 20.4646 9.56631 20.4879L10.0308 20.5119L10.0015 21.0777L9.53694 21.0536C8.81278 21.016 8.23104 20.4963 7.85588 19.7896C7.47763 19.0771 7.27942 18.1279 7.33263 17.109C7.38583 16.0899 7.6823 15.1669 8.1332 14.4979C8.58042 13.8343 9.21349 13.3786 9.93738 13.4162Z" fill="#000E26"/>
  <path d="M20.2589 28.5278C26.1254 28.5278 30.8812 23.7721 30.8812 17.9055C30.8812 12.039 26.1254 7.2832 20.2589 7.2832C14.3923 7.2832 9.63657 12.039 9.63657 17.9055C9.63657 23.7721 14.3923 28.5278 20.2589 28.5278Z" fill="#F4F4F4"/>
  <path d="M20.2589 7.2832C18.8468 7.2832 17.5014 7.5608 16.2692 8.06076C16.6487 8.01685 17.034 7.99136 17.4263 7.99136C22.9017 7.99136 27.3405 12.4301 27.3405 17.9055C27.3405 23.381 22.9017 27.8197 17.4263 27.8197C17.034 27.8197 16.6487 27.7942 16.2692 27.7503C17.5014 28.2502 18.8468 28.5278 20.2589 28.5278C26.1253 28.5278 30.8812 23.7719 30.8812 17.9055C30.8812 12.0392 26.1253 7.2832 20.2589 7.2832Z" fill="#A6C8F4"/>
  <path fill-rule="evenodd" clip-rule="evenodd" d="M20.2589 7.56652C14.5488 7.56652 9.91986 12.1955 9.91986 17.9056C9.91986 23.6157 14.5488 28.2446 20.2589 28.2446C25.969 28.2446 30.598 23.6157 30.598 17.9056C30.598 12.1955 25.969 7.56652 20.2589 7.56652ZM9.35333 17.9056C9.35333 11.8826 14.2359 7 20.2589 7C26.2819 7 31.1645 11.8826 31.1645 17.9056C31.1645 23.9286 26.2819 28.8112 20.2589 28.8112C14.2359 28.8112 9.35333 23.9286 9.35333 17.9056Z" fill="#000E26"/>
  <path d="M20.2589 27.3946C24.9521 27.3946 28.7568 23.59 28.7568 18.8968C28.7568 14.2035 24.9521 10.3989 20.2589 10.3989C15.5657 10.3989 11.761 14.2035 11.761 18.8968C11.761 23.59 15.5657 27.3946 20.2589 27.3946Z" fill="#000E26"/>
  <path d="M12.8941 19.3221C12.8941 15.5745 15.3217 12.3949 18.6896 11.2661C15.139 11.9913 12.4692 15.1326 12.4692 18.8972C12.4692 20.6662 13.0598 22.2949 14.0526 23.6036C13.3176 22.3459 12.8941 20.8843 12.8941 19.3221Z" fill="#F4F4F4"/>
  <path fill-rule="evenodd" clip-rule="evenodd" d="M20.2589 9.97418C15.331 9.97418 11.3361 13.969 11.3361 18.8969C11.3361 23.8248 15.331 27.8197 20.2589 27.8197C25.1868 27.8197 29.1816 23.8248 29.1816 18.8969C29.1816 13.969 25.1868 9.97418 20.2589 9.97418ZM11.0529 18.8969C11.0529 13.8126 15.1746 9.69092 20.2589 9.69092C25.3432 9.69092 29.4649 13.8126 29.4649 18.8969C29.4649 23.9813 25.3432 28.1029 20.2589 28.1029C15.1746 28.1029 11.0529 23.9813 11.0529 18.8969Z" fill="#000E26"/>
</svg>