<svg width="24" height="24" viewBox="0 0 24 24" fill="none" xmlns="http://www.w3.org/2000/svg">
<path d="M14 10.5C13.4477 10.5 13 10.9477 13 11.5V13.5C13 14.0523 13.4477 14.5 14 14.5H16C16.5523 14.5 17 14.0523 17 13.5V11.5C17 10.9477 16.5523 10.5 16 10.5H14Z" fill="#303233"/>
<path d="M9 10C9 9.72386 9.22386 9.5 9.5 9.5H10.5C10.7761 9.5 11 9.72386 11 10V11C11 11.2761 10.7761 11.5 10.5 11.5H9.5C9.22386 11.5 9 11.2761 9 11V10Z" fill="#303233"/>
<path d="M9.5 13.5C9.22386 13.5 9 13.7239 9 14V15C9 15.2761 9.22386 15.5 9.5 15.5H10.5C10.7761 15.5 11 15.2761 11 15V14C11 13.7239 10.7761 13.5 10.5 13.5H9.5Z" fill="#303233"/>
<path fill-rule="evenodd" clip-rule="evenodd" d="M2 4C2 3.44772 2.44772 3 3 3H5C6.10457 3 7 3.89543 7 5V6H19C20.1046 6 21 6.89543 21 8V17C21 18.1046 20.1046 19 19 19H7V21C7 21.5523 6.55228 22 6 22C5.44772 22 5 21.5523 5 21V5H3C2.44772 5 2 4.55228 2 4ZM7 17V8H19V17H7Z" fill="#303233"/>
</svg>
