<svg width="24" height="24" viewBox="0 0 24 24" fill="none" xmlns="http://www.w3.org/2000/svg">
<path fill-rule="evenodd" clip-rule="evenodd" d="M12 2.5C6.75329 2.5 2.5 6.75329 2.5 12C2.5 17.2467 6.75329 21.5 12 21.5C17.2467 21.5 21.5 17.2467 21.5 12C21.5 6.75329 17.2467 2.5 12 2.5ZM11.9531 4.50014L12 4.5L12.0469 4.50014C13.6667 6.23725 14.7298 8.49734 14.9551 11H9.04481C9.27016 8.49734 10.3332 6.23725 11.9531 4.50014ZM7.03792 11C7.20065 8.86245 7.8806 6.86893 8.95232 5.1451C6.61992 6.18364 4.91548 8.37763 4.56609 11H7.03792ZM4.56609 13H7.03792C7.20063 15.1375 7.88058 17.1311 8.95227 18.8549C6.6199 17.8163 4.91548 15.6224 4.56609 13ZM9.0448 13H14.9552C14.7298 15.5027 13.6667 17.7627 12.0469 19.4999L12 19.5L11.953 19.4999C10.3332 17.7627 9.27014 15.5027 9.0448 13ZM16.962 13C16.7993 15.1375 16.1194 17.1311 15.0477 18.8549C17.3801 17.8164 19.0845 15.6224 19.4339 13H16.962ZM19.4339 11C19.0845 8.37761 17.38 6.18359 15.0476 5.14507C16.1193 6.86891 16.7993 8.86244 16.962 11H19.4339Z" fill="#303233"/>
</svg>
