<svg width="24" height="24" viewBox="0 0 24 24" fill="none" xmlns="http://www.w3.org/2000/svg">
<path fill-rule="evenodd" clip-rule="evenodd" d="M7.71586 3C6.23514 3 4.97589 4.08033 4.75074 5.54383L3.01165 16.8479C2.99453 16.9592 2.99646 17.0689 3.01499 17.1739C3.00507 17.2813 3 17.3901 3 17.5C3 19.433 4.567 21 6.5 21H17.5C19.433 21 21 19.433 21 17.5C21 17.3901 20.9949 17.2814 20.985 17.1741C21.0036 17.069 21.0055 16.9592 20.9884 16.8479L19.2493 5.54383C19.0241 4.08033 17.7649 3 16.2842 3H7.71586ZM18.5514 14.1607L17.2726 5.84794C17.1975 5.36011 16.7778 5 16.2842 5H7.71586C7.22229 5 6.80254 5.36011 6.72748 5.84794L5.4486 14.1607C5.78047 14.0563 6.13366 14 6.5 14H17.5C17.8664 14 18.2196 14.0563 18.5514 14.1607ZM5 17.5C5 16.6716 5.67157 16 6.5 16H17.5C18.3284 16 19 16.6716 19 17.5C19 18.3284 18.3284 19 17.5 19H6.5C5.67157 19 5 18.3284 5 17.5Z" fill="#303233"/>
</svg>
