<svg width="100" height="100" viewBox="0 0 100 100" fill="none" xmlns="http://www.w3.org/2000/svg">
<g clip-path="url(#clip0_1930_1323)">
<path fill-rule="evenodd" clip-rule="evenodd" d="M56 50C56 53.3137 53.3137 56 50 56C46.6863 56 44 53.3137 44 50C44 46.6863 46.6863 44 50 44C53.3137 44 56 46.6863 56 50Z" fill="#0067C2"/>
<g opacity="0.95">
<path fill-rule="evenodd" clip-rule="evenodd" d="M88 50C88 55.5228 83.5228 60 78 60C72.4772 60 68 55.5228 68 50C68 44.4772 72.4772 40 78 40C83.5228 40 88 44.4772 88 50Z" fill="#4CE7FF"/>
</g>
<g opacity="0.95">
<path fill-rule="evenodd" clip-rule="evenodd" d="M32 50C32 55.5228 27.5228 60 22 60C16.4772 60 12 55.5228 12 50C12 44.4772 16.4772 40 22 40C27.5228 40 32 44.4772 32 50Z" fill="#4CE7FF"/>
</g>
</g>
<defs>
<clipPath id="clip0_1930_1323">
<rect width="100" height="100" fill="white"/>
</clipPath>
</defs>
</svg>
