<svg width="24" height="24" viewBox="0 0 24 24" fill="none" xmlns="http://www.w3.org/2000/svg">
<path fill-rule="evenodd" clip-rule="evenodd" d="M7.71598 3C6.23527 3 4.97602 4.08033 4.75086 5.54383L3.01177 16.8479C2.99466 16.9592 2.99658 17.0689 3.01511 17.1739C3.00519 17.2813 3.00012 17.3901 3.00012 17.5C3.00012 19.433 4.56713 21 6.50012 21H17.5001C19.4331 21 21.0001 19.433 21.0001 17.5C21.0001 17.3901 20.9951 17.2814 20.9851 17.1741C21.0037 17.069 21.0056 16.9592 20.9885 16.8479L19.2494 5.54383C19.0243 4.08033 17.765 3 16.2843 3H7.71598ZM18.5516 14.1607L17.2727 5.84794C17.1976 5.36011 16.7779 5 16.2843 5H7.71598C7.22241 5 6.80266 5.36011 6.72761 5.84794L5.44873 14.1607C5.7806 14.0563 6.13379 14 6.50012 14H17.5001C17.8665 14 18.2197 14.0563 18.5516 14.1607ZM5.00012 17.5C5.00012 16.6716 5.67169 16 6.50012 16H17.5001C18.3285 16 19.0001 16.6716 19.0001 17.5C19.0001 18.3284 18.3285 19 17.5001 19H6.50012C5.67169 19 5.00012 18.3284 5.00012 17.5Z" fill="#303233"/>
</svg>
