<svg width="24" height="24" viewBox="0 0 24 24" fill="none" xmlns="http://www.w3.org/2000/svg">
<path fill-rule="evenodd" clip-rule="evenodd" d="M12.5595 3.17105L12.5664 3.17569L12.5957 3.19505C12.6224 3.21263 12.6633 3.23935 12.7172 3.2739C12.8251 3.34302 12.9847 3.44327 13.1864 3.56428C13.5906 3.8068 14.1592 4.12997 14.8157 4.45223C16.1677 5.11592 17.7428 5.69989 19 5.69989C19.2652 5.69989 19.5196 5.80525 19.7071 5.99279C19.8947 6.18032 20 6.43468 20 6.69989V11.3574C20 14.5871 18.2694 17.5691 15.4653 19.1715L12.4962 20.8681C12.1887 21.0438 11.8113 21.0438 11.5039 20.8681L8.53473 19.1715C5.73059 17.5691 4.00001 14.5871 4 11.3574L4.00002 6.69988C4.00003 6.1476 4.44775 5.69989 5.00002 5.69989C6.25725 5.69989 7.83238 5.11592 9.18435 4.45223C9.8408 4.12997 10.4094 3.8068 10.8137 3.56428C11.0153 3.44327 11.1749 3.34302 11.2828 3.2739C11.3368 3.23935 11.3777 3.21263 11.4044 3.19505L11.4336 3.17569L11.4399 3.17147L11.4408 3.17089C11.7787 2.94291 12.2215 2.94311 12.5595 3.17105ZM12 5.18398C11.9504 5.21428 11.8979 5.2461 11.8426 5.27926C11.4031 5.54298 10.7842 5.89482 10.0657 6.24756C8.93114 6.80452 7.44961 7.41399 6.00002 7.62393L6 11.3574C6 13.8694 7.346 16.1887 9.52701 17.435L12 18.8481L14.473 17.435C16.654 16.1887 18 13.8694 18 11.3574V7.62393C16.5504 7.41399 15.0689 6.80452 13.9344 6.24756C13.2158 5.89482 12.5969 5.54298 12.1574 5.27926C12.1021 5.2461 12.0496 5.21428 12 5.18398ZM9 11.9999C9 11.4476 9.44772 10.9999 10 10.9999H11V9.99991C11 9.44762 11.4477 8.99991 12 8.99991C12.5523 8.99991 13 9.44762 13 9.99991V10.9999H14C14.5523 10.9999 15 11.4476 15 11.9999C15 12.5522 14.5523 12.9999 14 12.9999H13V13.9999C13 14.5522 12.5523 14.9999 12 14.9999C11.4477 14.9999 11 14.5522 11 13.9999V12.9999H10C9.44772 12.9999 9 12.5522 9 11.9999Z" fill="#303233"/>
</svg>
