<svg width="24" height="24" viewBox="0 0 24 24" fill="none" xmlns="http://www.w3.org/2000/svg">
<path fill-rule="evenodd" clip-rule="evenodd" d="M3 7.5C3 5.29086 4.79086 3.5 7 3.5H17C19.2091 3.5 21 5.29086 21 7.5C21 9.70914 19.2091 11.5 17 11.5H7C4.79086 11.5 3 9.70914 3 7.5ZM7 5.5C5.89543 5.5 5 6.39543 5 7.5C5 8.60457 5.89543 9.5 7 9.5H17C18.1046 9.5 19 8.60457 19 7.5C19 6.39543 18.1046 5.5 17 5.5H7Z" fill="#303233"/>
<path d="M9 7.5C9 8.05228 8.55228 8.5 8 8.5C7.44772 8.5 7 8.05228 7 7.5C7 6.94772 7.44772 6.5 8 6.5C8.55228 6.5 9 6.94772 9 7.5Z" fill="#303233"/>
<path fill-rule="evenodd" clip-rule="evenodd" d="M3 16.5C3 14.2909 4.79086 12.5 7 12.5H17C19.2091 12.5 21 14.2909 21 16.5C21 18.7091 19.2091 20.5 17 20.5H7C4.79086 20.5 3 18.7091 3 16.5ZM7 14.5C5.89543 14.5 5 15.3954 5 16.5C5 17.6046 5.89543 18.5 7 18.5H17C18.1046 18.5 19 17.6046 19 16.5C19 15.3954 18.1046 14.5 17 14.5H7Z" fill="#303233"/>
<path d="M9 16.5C9 17.0523 8.55228 17.5 8 17.5C7.44772 17.5 7 17.0523 7 16.5C7 15.9477 7.44772 15.5 8 15.5C8.55228 15.5 9 15.9477 9 16.5Z" fill="#303233"/>
</svg>
