<svg width="24" height="24" viewBox="0 0 24 24" fill="none" xmlns="http://www.w3.org/2000/svg">
<path d="M14.1214 7.05036C14.5119 6.65983 15.1451 6.65983 15.5356 7.05036L16.9498 8.46457C17.3404 8.85509 17.3404 9.48826 16.9498 9.87878L15.5356 11.293C15.1451 11.6835 14.5119 11.6835 14.1214 11.293L12.7072 9.87878C12.3167 9.48826 12.3167 8.85509 12.7072 8.46457L14.1214 7.05036Z" fill="#303233"/>
<path d="M9.87886 11.2929C10.2694 10.9024 10.9026 10.9024 11.2931 11.2929L12.7073 12.7071C13.0978 13.0976 13.0978 13.7308 12.7073 14.1213L11.2931 15.5356C10.9026 15.9261 10.2694 15.9261 9.87886 15.5356L8.46465 14.1213C8.07413 13.7308 8.07413 13.0976 8.46465 12.7071L9.87886 11.2929Z" fill="#303233"/>
<path fill-rule="evenodd" clip-rule="evenodd" d="M16.5963 2.45416C15.62 1.47785 14.0371 1.47785 13.0608 2.45416L2.45416 13.0608C1.47785 14.0371 1.47785 15.62 2.45416 16.5963L3.16126 17.3034C3.77757 17.9197 4.62868 17.7989 5.12634 17.5032C5.51026 17.2751 6.01408 17.3278 6.34324 17.657C6.67241 17.9861 6.7251 18.4899 6.49699 18.8739C6.2013 19.3715 6.08049 20.2226 6.6968 20.8389L7.4039 21.546C8.38021 22.5224 9.96313 22.5224 10.9394 21.546L21.546 10.9394C22.5224 9.96313 22.5224 8.38022 21.546 7.4039L16.5963 2.45416ZM14.475 3.86837C14.6702 3.67311 14.9868 3.67311 15.1821 3.86837L20.1318 8.81812C20.3271 9.01338 20.3271 9.32996 20.1318 9.52522L9.52522 20.1318C9.32996 20.3271 9.01338 20.3271 8.81812 20.1318L8.34364 19.6574C8.87601 18.5425 8.68178 17.1671 7.75746 16.2427C6.83313 15.3184 5.45768 15.1242 4.34285 15.6566L3.86837 15.1821C3.67311 14.9868 3.67311 14.6702 3.86837 14.475L14.475 3.86837Z" fill="#303233"/>
</svg>
