<svg width="80" height="80" viewBox="0 0 80 80" fill="none" xmlns="http://www.w3.org/2000/svg">
<rect x="10" y="8" width="60" height="60" rx="3" fill="#D3D7DE"/>
<path d="M19.75 68H22.75V68.75C22.75 69.1642 22.4142 69.5 22 69.5H20.5C20.0858 69.5 19.75 69.1642 19.75 68.75V68Z" fill="#E6EBF2"/>
<path d="M57.25 68H60.25V68.75C60.25 69.1642 59.9142 69.5 59.5 69.5H58C57.5858 69.5 57.25 69.1642 57.25 68.75V68Z" fill="#E6EBF2"/>
<rect x="13" y="39" width="54" height="26" rx="2" fill="white"/>
<rect x="13" y="11" width="54" height="14" rx="2" fill="white"/>
<rect width="58" height="26" transform="matrix(1 0 0 -1 11 65)" fill="#ADB6C5"/>
<path fill-rule="evenodd" clip-rule="evenodd" d="M29.7891 31.875C29.7891 31.5519 29.5272 31.29 29.2041 31.29H26.2505C25.9274 31.29 25.6655 31.5519 25.6655 31.875C25.6655 32.1981 25.9274 32.46 26.2505 32.46H29.2041C29.5272 32.46 29.7891 32.1981 29.7891 31.875ZM25.9109 31.7774C25.9109 31.6428 26.0201 31.5337 26.1547 31.5337H29.2999C29.4345 31.5337 29.5437 31.6428 29.5437 31.7774V31.8248C29.5437 31.9333 29.4558 32.0212 29.3474 32.0212H29.1999C29.1729 32.0212 29.1511 32.043 29.1511 32.07C29.1511 32.0969 29.1292 32.1188 29.1023 32.1188H28.7089C28.682 32.1188 28.6601 32.0969 28.6601 32.07C28.6601 32.043 28.6383 32.0212 28.6113 32.0212H28.4143C28.3874 32.0212 28.3656 32.043 28.3656 32.07C28.3656 32.0969 28.3437 32.1188 28.3168 32.1188H27.9234C27.8965 32.1188 27.8746 32.0969 27.8746 32.07C27.8746 32.043 27.8528 32.0212 27.8258 32.0212H27.6288C27.6019 32.0212 27.58 32.043 27.58 32.07C27.58 32.0969 27.5582 32.1188 27.5312 32.1188H27.1379C27.111 32.1188 27.0891 32.0969 27.0891 32.07C27.0891 32.043 27.0673 32.0212 27.0403 32.0212H26.8433C26.8164 32.0212 26.7945 32.043 26.7945 32.07C26.7945 32.0969 26.7727 32.1188 26.7457 32.1188H26.3524C26.3255 32.1188 26.3036 32.0969 26.3036 32.07C26.3036 32.043 26.2818 32.0212 26.2548 32.0212H26.1073C25.9988 32.0212 25.9109 31.9332 25.9109 31.8248V31.7774Z" fill="white"/>
<path fill-rule="evenodd" clip-rule="evenodd" d="M33.52 31.875C33.52 31.5519 33.7819 31.29 34.105 31.29H37.0586C37.3817 31.29 37.6436 31.5519 37.6436 31.875C37.6436 32.1981 37.3817 32.46 37.0586 32.46H34.105C33.7819 32.46 33.52 32.1981 33.52 31.875ZM33.7655 31.7774C33.7655 31.6428 33.8746 31.5337 34.0092 31.5337H37.1545C37.2891 31.5337 37.3982 31.6428 37.3982 31.7774V31.8248C37.3982 31.9333 37.3103 32.0212 37.2019 32.0212H37.0544C37.0274 32.0212 37.0056 32.043 37.0056 32.07C37.0056 32.0969 36.9837 32.1188 36.9568 32.1188H36.5635C36.5365 32.1188 36.5147 32.0969 36.5147 32.07C36.5147 32.043 36.4928 32.0212 36.4659 32.0212H36.2689C36.2419 32.0212 36.2201 32.043 36.2201 32.07C36.2201 32.0969 36.1982 32.1188 36.1713 32.1188H35.778C35.751 32.1188 35.7292 32.0969 35.7292 32.07C35.7292 32.043 35.7073 32.0212 35.6804 32.0212H35.4834C35.4564 32.0212 35.4346 32.043 35.4346 32.07C35.4346 32.0969 35.4127 32.1188 35.3858 32.1188H34.9925C34.9655 32.1188 34.9437 32.0969 34.9437 32.07C34.9437 32.043 34.9218 32.0212 34.8949 32.0212H34.6979C34.6709 32.0212 34.6491 32.043 34.6491 32.07C34.6491 32.0969 34.6272 32.1188 34.6003 32.1188H34.207C34.18 32.1188 34.1582 32.0969 34.1582 32.07C34.1582 32.043 34.1363 32.0212 34.1094 32.0212H33.9618C33.8534 32.0212 33.7655 31.9332 33.7655 31.8248V31.7774Z" fill="white"/>
<path d="M48.1 32.7038C47.6391 32.7038 47.2655 32.3327 47.2655 31.875C47.2655 31.4173 47.6391 31.0462 48.1 31.0462C48.5609 31.0462 48.9345 31.4173 48.9345 31.875C48.9345 32.3327 48.5609 32.7038 48.1 32.7038Z" fill="white"/>
<path d="M43.1909 31.5338H41.7182C41.5284 31.5338 41.3745 31.6865 41.3745 31.875C41.3745 32.0635 41.5284 32.2163 41.7182 32.2163H43.1909C43.3807 32.2163 43.5345 32.0635 43.5345 31.875C43.5345 31.6865 43.3807 31.5338 43.1909 31.5338Z" fill="white"/>
<path fill-rule="evenodd" clip-rule="evenodd" d="M13 28.5C13 27.6716 13.6716 27 14.5 27H65.5C66.3284 27 67 27.6716 67 28.5V35.25C67 36.0784 66.3284 36.75 65.5 36.75H14.5C13.6716 36.75 13 36.0784 13 35.25V28.5ZM26.2477 30.9C25.7093 30.9 25.2727 31.3365 25.2727 31.875C25.2727 32.4135 25.7092 32.85 26.2477 32.85H29.2068C29.7453 32.85 30.1818 32.4135 30.1818 31.875C30.1818 31.3365 29.7453 30.9 29.2068 30.9H26.2477ZM34.1023 32.85C33.5638 32.85 33.1273 32.4135 33.1273 31.875C33.1273 31.3365 33.5638 30.9 34.1023 30.9H37.0614C37.5998 30.9 38.0364 31.3365 38.0364 31.875C38.0364 32.4135 37.5998 32.85 37.0614 32.85H34.1023ZM46.8727 31.875C46.8727 31.2019 47.4222 30.6563 48.1 30.6563C48.7778 30.6563 49.3273 31.2019 49.3273 31.875C49.3273 32.5481 48.7778 33.0937 48.1 33.0937C47.4222 33.0937 46.8727 32.5481 46.8727 31.875ZM40.9818 31.875C40.9818 31.4711 41.3115 31.1437 41.7182 31.1437H43.1909C43.5976 31.1437 43.9273 31.4711 43.9273 31.875C43.9273 32.2789 43.5976 32.6062 43.1909 32.6062H41.7182C41.3115 32.6062 40.9818 32.2789 40.9818 31.875Z" fill="white"/>
<path d="M52.2729 31.9091C52.2729 31.2313 52.8224 30.6818 53.5002 30.6818C54.178 30.6818 54.7275 31.2313 54.7275 31.9091C54.7275 32.5869 54.178 33.1364 53.5002 33.1364C52.8224 33.1364 52.2729 32.5869 52.2729 31.9091Z" fill="#929AA3"/>
<path fill-rule="evenodd" clip-rule="evenodd" d="M52.8619 31.909C52.8619 32.2615 53.1476 32.5472 53.5 32.5472C53.8525 32.5472 54.1382 32.2615 54.1382 31.909C54.1382 31.5566 53.8525 31.2709 53.5 31.2709C53.1476 31.2709 52.8619 31.5566 52.8619 31.909ZM53.5 31.1727C53.0934 31.1727 52.7637 31.5024 52.7637 31.909C52.7637 32.3157 53.0934 32.6454 53.5 32.6454C53.9067 32.6454 54.2364 32.3157 54.2364 31.909C54.2364 31.5024 53.9067 31.1727 53.5 31.1727Z" fill="white"/>
<rect x="29" y="40" width="10" height="24" rx="2" fill="#8E97A5"/>
<rect x="30" y="41" width="8" height="22" rx="1.5" fill="#9FA7B4"/>
<rect x="32" y="55" width="4" height="6" rx="0.8" fill="white"/>
<rect x="32" y="43" width="4" height="0.6" rx="0.3" fill="#D9D9D9"/>
<rect x="32" y="44.2" width="4" height="0.6" rx="0.3" fill="#D9D9D9"/>
<rect x="32" y="45.4" width="4" height="0.6" rx="0.3" fill="#D9D9D9"/>
<rect x="41" y="40" width="10" height="24" rx="2" fill="#8E97A5"/>
<rect x="42" y="41" width="8" height="22" rx="1.5" fill="#9FA7B4"/>
<rect x="44" y="55" width="4" height="6" rx="0.8" fill="white"/>
<rect x="44" y="43" width="4" height="0.6" rx="0.3" fill="#D9D9D9"/>
<rect x="44" y="44.2" width="4" height="0.6" rx="0.3" fill="#D9D9D9"/>
<rect x="44" y="45.4" width="4" height="0.6" rx="0.3" fill="#D9D9D9"/>
<path d="M24.4 36.9L21 30.6C21 30.7 21 30.9 21 31V69C21 69.5 20.8 69.9 20.5 70.3L23.3 68.2C24.3 67.4 24.9 66.2 24.9 65V39.3C24.9 38.4023 24.8 37.6 24.4 36.9Z" fill="url(#paint0_linear_2279_10420)"/>
<path d="M21 31V69C21 69.5 20.8 69.9 20.5 70.3C20.3 70.5 20 70.8 19.7 70.9C19.5 71 19.3 71 19 71H9C7.9 71 7 70.1 7 69V31C7 29.9 7.9 29 9 29H19C19.5 29 20 29.2 20.4 29.6C20.7 29.9 20.9 30.2 21 30.6C21 30.7 21 30.9 21 31Z" fill="#B7C0CC"/>
<rect x="8.5" y="30.5" width="11" height="39" rx="1.5" fill="white"/>
<rect x="10.5" y="55.5" width="7" height="12" rx="1" fill="#DADFE6"/>
<rect x="10.5" y="32.5" width="7" height="1" rx="0.5" fill="#DADFE6"/>
<rect x="10.5" y="34.5" width="7" height="1" rx="0.5" fill="#DADFE6"/>
<rect x="10.5" y="36.5" width="7" height="1" rx="0.5" fill="#DADFE6"/>
<rect x="11.5" y="56.5" width="5" height="10" rx="0.5" fill="white"/>
<path d="M55.6 36.9L59 30.6C59 30.7 59 30.9 59 31V69C59 69.5 59.2 69.9 59.5 70.3L56.7 68.2C55.7 67.4 55.1 66.2 55.1 65V39.3C55.1 38.4023 55.2 37.6 55.6 36.9Z" fill="url(#paint1_linear_2279_10420)"/>
<path d="M59 31V69C59 69.5 59.2 69.9 59.5 70.3C59.7 70.5 60 70.8 60.3 70.9C60.5 71 60.7 71 61 71H71C72.1 71 73 70.1 73 69V31C73 29.9 72.1 29 71 29H61C60.5 29 60 29.2 59.6 29.6C59.3 29.9 59.1 30.2 59 30.6C59 30.7 59 30.9 59 31Z" fill="#B7C0CC"/>
<rect width="11" height="39" rx="1.5" transform="matrix(-1 0 0 1 71.5 30.5)" fill="white"/>
<rect width="7" height="12" rx="1" transform="matrix(-1 0 0 1 69.5 55.5)" fill="#DADFE6"/>
<rect width="7" height="1" rx="0.5" transform="matrix(-1 0 0 1 69.5 32.5)" fill="#DADFE6"/>
<rect width="7" height="1" rx="0.5" transform="matrix(-1 0 0 1 69.5 34.5)" fill="#DADFE6"/>
<rect width="7" height="1" rx="0.5" transform="matrix(-1 0 0 1 69.5 36.5)" fill="#DADFE6"/>
<rect width="5" height="10" rx="0.5" transform="matrix(-1 0 0 1 68.5 56.5)" fill="white"/>
<defs>
<linearGradient id="paint0_linear_2279_10420" x1="24.8993" y1="48.1147" x2="21" y2="47.5" gradientUnits="userSpaceOnUse">
<stop stop-color="#BCC5D3"/>
<stop offset="1" stop-color="#A8B2BF"/>
</linearGradient>
<linearGradient id="paint1_linear_2279_10420" x1="55.1007" y1="48.1147" x2="59" y2="47.5" gradientUnits="userSpaceOnUse">
<stop stop-color="#BCC5D3"/>
<stop offset="1" stop-color="#A8B2BF"/>
</linearGradient>
</defs>
</svg>
