<svg width="16" height="16" viewBox="0 0 16 16" fill="none" xmlns="http://www.w3.org/2000/svg">
<path fill-rule="evenodd" clip-rule="evenodd" d="M7.99992 2.66634C5.0544 2.66634 2.66659 5.05416 2.66659 7.99967C2.66659 10.9452 5.0544 13.333 7.99992 13.333C10.9454 13.333 13.3333 10.9452 13.3333 7.99967C13.3333 5.05416 10.9454 2.66634 7.99992 2.66634ZM1.33325 7.99967C1.33325 4.31778 4.31802 1.33301 7.99992 1.33301C11.6818 1.33301 14.6666 4.31778 14.6666 7.99967C14.6666 11.6816 11.6818 14.6663 7.99992 14.6663C4.31802 14.6663 1.33325 11.6816 1.33325 7.99967Z" fill="#F26224"/>
<path fill-rule="evenodd" clip-rule="evenodd" d="M8.83325 10.833C8.83325 11.2932 8.46016 11.6663 7.99992 11.6663C7.53968 11.6663 7.16659 11.2932 7.16659 10.833C7.16659 10.3728 7.53968 9.99967 7.99992 9.99967C8.46016 9.99967 8.83325 10.3728 8.83325 10.833Z" fill="#F26224"/>
<path fill-rule="evenodd" clip-rule="evenodd" d="M7.06644 5.33079C7.03044 4.79081 7.45873 4.33301 7.99992 4.33301C8.5411 4.33301 8.9694 4.79081 8.9334 5.33079L8.71093 8.66782C8.68598 9.04214 8.37507 9.33301 7.99992 9.33301C7.62477 9.33301 7.31386 9.04214 7.28891 8.66782L7.06644 5.33079Z" fill="#F26224"/>
</svg>
