<svg width="260" height="100" viewBox="0 0 260 100" fill="none" xmlns="http://www.w3.org/2000/svg">
    <g opacity="0.8">
        <g opacity="0.4" filter="url(#filter0_f_988_10640)">
            <path
                d="M18.811 74.2971C19.5686 73.4706 20.6384 73 21.7596 73H238.24C239.362 73 240.431 73.4706 241.189 74.2971L244.856 78.2971C247.207 80.8627 245.387 85 241.907 85H18.0929C14.6125 85 12.7925 80.8627 15.1443 78.2971L18.811 74.2971Z"
                fill="#6C7480" />
        </g>
        <g opacity="0.4" filter="url(#filter1_f_988_10640)">
            <path
                d="M17.8284 78.1716C18.5786 77.4214 19.596 77 20.6569 77H238.552C239.488 77 240.394 77.3281 241.113 77.9271L241.756 78.4636C243.193 79.6611 242.346 82 240.476 82H18.8284C17.0466 82 16.1543 79.8457 17.4142 78.5858L17.8284 78.1716Z"
                fill="#6C7480" />
        </g>
    </g>
    <g filter="url(#filter2_iiii_988_10640)">
        <rect x="16" width="228" height="80" rx="8" fill="url(#paint0_linear_988_10640)" />
    </g>
    <g filter="url(#filter3_i_988_10640)">
        <rect x="24" y="8" width="124" height="64" rx="4" fill="#B8C0CC" />
    </g>
    <rect x="24.5" y="8.5" width="123" height="63" rx="3.5" stroke="#CFD8E5" />
    <g filter="url(#filter4_i_988_10640)">
        <rect x="152" y="8" width="84" height="64" rx="4" fill="#B8C0CC" />
    </g>
    <rect x="152.5" y="8.5" width="83" height="63" rx="3.5" stroke="#CFD8E5" />
    <rect x="156" y="12" width="16" height="56" rx="3" fill="white" />
    <!-- A color -->
    <g fill="#28C322">
        <g opacity="0.5" filter="url(#filter5_f_988_10640)">
            <circle cx="164" cy="20" r="2" />
        </g>
        <circle cx="164" cy="20" r="2" />
    </g>
    <!-- B color -->
    <g fill="#28C322">
        <g opacity="0.5" filter="url(#filter5_f_988_10640)">
            <circle cx="164" cy="20" r="2" />
        </g>
        <circle cx="164" cy="20" r="2" />
    </g>
    <!-- C color -->
    <g fill="#28C322">
        <g opacity="0.5" filter="url(#filter5_f_988_10640)">
            <circle cx="164" cy="20" r="2" />
        </g>
        <circle cx="164" cy="20" r="2" />
    </g>
    <!-- D color -->
    <g fill="#28C322">
        <g opacity="0.5" filter="url(#filter5_f_988_10640)">
            <circle cx="164" cy="20" r="2" />
        </g>
        <circle cx="164" cy="20" r="2" />
    </g>
    
    <path
        d="M164.211 54.6055L161.662 62H160.121L163.332 53.4688H164.316L164.211 54.6055ZM166.344 62L163.789 54.6055L163.678 53.4688H164.668L167.891 62H166.344ZM166.221 58.8359V60.002H161.58V58.8359H166.221Z"
        fill="#909599" />
    <g opacity="0.5">
        <rect x="176" y="12" width="16" height="56" rx="3" fill="white" />
        <path
            d="M184.275 58.1445H182.102L182.09 57.0723H183.988C184.309 57.0723 184.58 57.0254 184.803 56.9316C185.029 56.834 185.201 56.6953 185.318 56.5156C185.436 56.332 185.494 56.1113 185.494 55.8535C185.494 55.5684 185.439 55.3359 185.33 55.1562C185.221 54.9766 185.053 54.8457 184.826 54.7637C184.604 54.6816 184.318 54.6406 183.971 54.6406H182.547V62H181.076V53.4688H183.971C184.439 53.4688 184.857 53.5137 185.225 53.6035C185.596 53.6934 185.91 53.834 186.168 54.0254C186.43 54.2129 186.627 54.4512 186.76 54.7402C186.896 55.0293 186.965 55.373 186.965 55.7715C186.965 56.123 186.881 56.4453 186.713 56.7383C186.545 57.0273 186.297 57.2637 185.969 57.4473C185.641 57.6309 185.232 57.7402 184.744 57.7754L184.275 58.1445ZM184.211 62H181.639L182.301 60.834H184.211C184.543 60.834 184.82 60.7793 185.043 60.6699C185.266 60.5566 185.432 60.4023 185.541 60.207C185.654 60.0078 185.711 59.7754 185.711 59.5098C185.711 59.2324 185.662 58.9922 185.564 58.7891C185.467 58.582 185.312 58.4238 185.102 58.3145C184.891 58.2012 184.615 58.1445 184.275 58.1445H182.623L182.635 57.0723H184.785L185.119 57.4766C185.588 57.4922 185.973 57.5957 186.273 57.7871C186.578 57.9785 186.805 58.2266 186.953 58.5312C187.102 58.8359 187.176 59.1641 187.176 59.5156C187.176 60.0586 187.057 60.5137 186.818 60.8809C186.584 61.248 186.246 61.5273 185.805 61.7188C185.363 61.9062 184.832 62 184.211 62Z"
            fill="#909599" />
        <circle cx="184" cy="20" r="2" fill="#C0C6CC" />
    </g>
    <g opacity="0.5">
        <rect x="196" y="12" width="16" height="56" rx="3" fill="white" />
        <path
            d="M205.986 59.2227H207.451C207.404 59.7812 207.248 60.2793 206.982 60.7168C206.717 61.1504 206.344 61.4922 205.863 61.7422C205.383 61.9922 204.799 62.1172 204.111 62.1172C203.584 62.1172 203.109 62.0234 202.688 61.8359C202.266 61.6445 201.904 61.375 201.604 61.0273C201.303 60.6758 201.072 60.252 200.912 59.7559C200.756 59.2598 200.678 58.7051 200.678 58.0918V57.3828C200.678 56.7695 200.758 56.2148 200.918 55.7188C201.082 55.2227 201.316 54.7988 201.621 54.4473C201.926 54.0918 202.291 53.8203 202.717 53.6328C203.146 53.4453 203.629 53.3516 204.164 53.3516C204.844 53.3516 205.418 53.4766 205.887 53.7266C206.355 53.9766 206.719 54.3223 206.977 54.7637C207.238 55.2051 207.398 55.7109 207.457 56.2812H205.992C205.953 55.9141 205.867 55.5996 205.734 55.3379C205.605 55.0762 205.414 54.877 205.16 54.7402C204.906 54.5996 204.574 54.5293 204.164 54.5293C203.828 54.5293 203.535 54.5918 203.285 54.7168C203.035 54.8418 202.826 55.0254 202.658 55.2676C202.49 55.5098 202.363 55.8086 202.277 56.1641C202.195 56.5156 202.154 56.918 202.154 57.3711V58.0918C202.154 58.5215 202.191 58.9121 202.266 59.2637C202.344 59.6113 202.461 59.9102 202.617 60.1602C202.777 60.4102 202.98 60.6035 203.227 60.7402C203.473 60.877 203.768 60.9453 204.111 60.9453C204.529 60.9453 204.867 60.8789 205.125 60.7461C205.387 60.6133 205.584 60.4199 205.717 60.166C205.854 59.9082 205.943 59.5938 205.986 59.2227Z"
            fill="#909599" />
        <circle cx="204" cy="20" r="2" fill="#C0C6CC" />
    </g>
    <g opacity="0.5">
        <rect x="216" y="12" width="16" height="56" rx="3" fill="white" />
        <path
            d="M223.426 62H221.604L221.615 60.834H223.426C223.953 60.834 224.395 60.7188 224.75 60.4883C225.109 60.2578 225.379 59.9277 225.559 59.498C225.742 59.0684 225.834 58.5566 225.834 57.9629V57.5C225.834 57.0391 225.781 56.6309 225.676 56.2754C225.574 55.9199 225.422 55.6211 225.219 55.3789C225.02 55.1367 224.773 54.9531 224.48 54.8281C224.191 54.7031 223.857 54.6406 223.479 54.6406H221.568V53.4688H223.479C224.045 53.4688 224.562 53.5645 225.031 53.7559C225.5 53.9434 225.904 54.2148 226.244 54.5703C226.588 54.9258 226.852 55.3516 227.035 55.8477C227.219 56.3438 227.311 56.8984 227.311 57.5117V57.9629C227.311 58.5762 227.219 59.1309 227.035 59.627C226.852 60.123 226.588 60.5488 226.244 60.9043C225.9 61.2559 225.49 61.5273 225.014 61.7188C224.541 61.9062 224.012 62 223.426 62ZM222.418 53.4688V62H220.947V53.4688H222.418Z"
            fill="#909599" />
        <circle cx="224" cy="20" r="2" fill="#C0C6CC" />
    </g>
    <rect x="47" y="12" width="16" height="56" rx="3" fill="white" />
    <path
        d="M57.9531 60.875V62H52.2344V61.0332L55.0117 58.0039C55.3164 57.6602 55.5566 57.3633 55.7324 57.1133C55.9082 56.8633 56.0312 56.6387 56.1016 56.4395C56.1758 56.2363 56.2129 56.0391 56.2129 55.8477C56.2129 55.5781 56.1621 55.3418 56.0605 55.1387C55.9629 54.9316 55.8184 54.7695 55.627 54.6523C55.4355 54.5312 55.2031 54.4707 54.9297 54.4707C54.6133 54.4707 54.3477 54.5391 54.1328 54.6758C53.918 54.8125 53.7559 55.002 53.6465 55.2441C53.5371 55.4824 53.4824 55.7559 53.4824 56.0645H52.0703C52.0703 55.5684 52.1836 55.1152 52.4102 54.7051C52.6367 54.291 52.9648 53.9629 53.3945 53.7207C53.8242 53.4746 54.3418 53.3516 54.9473 53.3516C55.5176 53.3516 56.002 53.4473 56.4004 53.6387C56.7988 53.8301 57.1016 54.1016 57.3086 54.4531C57.5195 54.8047 57.625 55.2207 57.625 55.7012C57.625 55.9668 57.582 56.2305 57.4961 56.4922C57.4102 56.7539 57.2871 57.0156 57.127 57.2773C56.9707 57.5352 56.7852 57.7949 56.5703 58.0566C56.3555 58.3145 56.1191 58.5762 55.8613 58.8418L54.0156 60.875H57.9531Z"
        fill="#909599" />
    <g opacity="0.5" filter="url(#filter6_f_988_10640)">
        <circle cx="55" cy="20" r="2" fill="#28C322" />
    </g>
    <circle cx="55" cy="20" r="2" fill="#28C322" />
    <rect x="51" y="28" width="8" height="1" fill="#DADFE5" />
    <rect x="51" y="31" width="8" height="1" fill="#DADFE5" />
    <rect x="51" y="34" width="8" height="1" fill="#DADFE5" />
    <rect x="68" y="12" width="16" height="56" rx="3" fill="white" />
    <path
        d="M74.8926 57.0957H75.7363C76.0645 57.0957 76.3359 57.0391 76.5508 56.9258C76.7695 56.8125 76.9316 56.6562 77.0371 56.457C77.1426 56.2578 77.1953 56.0293 77.1953 55.7715C77.1953 55.502 77.1465 55.2715 77.0488 55.0801C76.9551 54.8848 76.8105 54.7344 76.6152 54.6289C76.4238 54.5234 76.1797 54.4707 75.8828 54.4707C75.6328 54.4707 75.4062 54.5215 75.2031 54.623C75.0039 54.7207 74.8457 54.8613 74.7285 55.0449C74.6113 55.2246 74.5527 55.4395 74.5527 55.6895H73.1348C73.1348 55.2363 73.2539 54.834 73.4922 54.4824C73.7305 54.1309 74.0547 53.8555 74.4648 53.6562C74.8789 53.4531 75.3438 53.3516 75.8594 53.3516C76.4102 53.3516 76.8906 53.4434 77.3008 53.627C77.7148 53.8066 78.0371 54.0762 78.2676 54.4355C78.498 54.7949 78.6133 55.2402 78.6133 55.7715C78.6133 56.0137 78.5566 56.2598 78.4434 56.5098C78.3301 56.7598 78.1621 56.9883 77.9395 57.1953C77.7168 57.3984 77.4395 57.5645 77.1074 57.6934C76.7754 57.8184 76.3906 57.8809 75.9531 57.8809H74.8926V57.0957ZM74.8926 58.1973V57.4238H75.9531C76.4531 57.4238 76.8789 57.4824 77.2305 57.5996C77.5859 57.7168 77.875 57.8789 78.0977 58.0859C78.3203 58.2891 78.4824 58.5215 78.584 58.7832C78.6895 59.0449 78.7422 59.3223 78.7422 59.6152C78.7422 60.0137 78.6699 60.3691 78.5254 60.6816C78.3848 60.9902 78.1836 61.252 77.9219 61.4668C77.6602 61.6816 77.3535 61.8438 77.002 61.9531C76.6543 62.0625 76.2754 62.1172 75.8652 62.1172C75.498 62.1172 75.1465 62.0664 74.8105 61.9648C74.4746 61.8633 74.1738 61.7129 73.9082 61.5137C73.6426 61.3105 73.4316 61.0586 73.2754 60.7578C73.123 60.4531 73.0469 60.1016 73.0469 59.7031H74.459C74.459 59.957 74.5176 60.1816 74.6348 60.377C74.7559 60.5684 74.9238 60.7188 75.1387 60.8281C75.3574 60.9375 75.6074 60.9922 75.8887 60.9922C76.1855 60.9922 76.4414 60.9395 76.6562 60.834C76.8711 60.7285 77.0352 60.5723 77.1484 60.3652C77.2656 60.1582 77.3242 59.9082 77.3242 59.6152C77.3242 59.2832 77.2598 59.0137 77.1309 58.8066C77.002 58.5996 76.8184 58.4473 76.5801 58.3496C76.3418 58.248 76.0605 58.1973 75.7363 58.1973H74.8926Z"
        fill="#909599" />
    <g opacity="0.5" filter="url(#filter7_f_988_10640)">
        <circle cx="76" cy="20" r="2" fill="#F26224" />
    </g>
    <circle cx="76" cy="20" r="2" fill="#F26224" />
    <rect x="72" y="28" width="8" height="1" fill="#DADFE5" />
    <rect x="72" y="31" width="8" height="1" fill="#DADFE5" />
    <rect x="72" y="34" width="8" height="1" fill="#DADFE5" />
    <g opacity="0.5">
        <rect x="88" y="12" width="16" height="56" rx="3" fill="white" />
        <path
            d="M99.1113 58.959V60.084H92.959L92.9121 59.2344L96.5918 53.4688H97.7227L96.498 55.5664L94.3828 58.959H99.1113ZM98.0449 53.4688V62H96.6328V53.4688H98.0449Z"
            fill="#909599" />
        <circle cx="96" cy="20" r="2" fill="#C0C6CC" />
        <rect x="92" y="28" width="8" height="1" fill="#DADFE5" />
        <rect x="92" y="31" width="8" height="1" fill="#DADFE5" />
        <rect x="92" y="34" width="8" height="1" fill="#DADFE5" />
    </g>
    <g opacity="0.5">
        <rect x="108" y="12" width="16" height="56" rx="3" fill="white" />
        <path
            d="M114.717 58.0332L113.592 57.7578L114.055 53.4688H118.654V54.6641H115.227L114.992 56.7559C115.125 56.6777 115.309 56.6016 115.543 56.5273C115.777 56.4492 116.045 56.4102 116.346 56.4102C116.748 56.4102 117.107 56.4766 117.424 56.6094C117.744 56.7383 118.016 56.9277 118.238 57.1777C118.461 57.4238 118.631 57.7246 118.748 58.0801C118.865 58.4316 118.924 58.8281 118.924 59.2695C118.924 59.6641 118.865 60.0332 118.748 60.377C118.635 60.7207 118.463 61.0234 118.232 61.2852C118.002 61.5469 117.711 61.752 117.359 61.9004C117.012 62.0449 116.6 62.1172 116.123 62.1172C115.768 62.1172 115.426 62.0664 115.098 61.9648C114.773 61.8594 114.482 61.7051 114.225 61.502C113.967 61.2949 113.76 61.041 113.604 60.7402C113.447 60.4355 113.357 60.0859 113.334 59.6914H114.717C114.752 59.9688 114.828 60.2051 114.945 60.4004C115.066 60.5918 115.227 60.7383 115.426 60.8398C115.625 60.9414 115.855 60.9922 116.117 60.9922C116.355 60.9922 116.561 60.9512 116.732 60.8691C116.904 60.7832 117.047 60.6621 117.16 60.5059C117.277 60.3457 117.363 60.1582 117.418 59.9434C117.477 59.7285 117.506 59.4902 117.506 59.2285C117.506 58.9785 117.473 58.75 117.406 58.543C117.344 58.3359 117.248 58.1562 117.119 58.0039C116.994 57.8516 116.836 57.7344 116.645 57.6523C116.453 57.5664 116.232 57.5234 115.982 57.5234C115.646 57.5234 115.389 57.5723 115.209 57.6699C115.033 57.7676 114.869 57.8887 114.717 58.0332Z"
            fill="#909599" />
        <circle cx="116" cy="20" r="2" fill="#C0C6CC" />
        <rect x="112" y="28" width="8" height="1" fill="#DADFE5" />
        <rect x="112" y="31" width="8" height="1" fill="#DADFE5" />
        <rect x="112" y="34" width="8" height="1" fill="#DADFE5" />
    </g>
    <g opacity="0.5">
        <rect x="128" y="12" width="16" height="56" rx="3" fill="white" />
        <path
            d="M137.559 53.416H137.734V54.5703H137.635C137.131 54.5703 136.695 54.6484 136.328 54.8047C135.965 54.9609 135.666 55.1758 135.432 55.4492C135.197 55.7227 135.021 56.043 134.904 56.4102C134.791 56.7734 134.734 57.1602 134.734 57.5703V58.9121C134.734 59.252 134.771 59.5527 134.846 59.8145C134.92 60.0723 135.023 60.2891 135.156 60.4648C135.293 60.6367 135.449 60.7676 135.625 60.8574C135.801 60.9473 135.99 60.9922 136.193 60.9922C136.404 60.9922 136.596 60.9492 136.768 60.8633C136.939 60.7734 137.086 60.6504 137.207 60.4941C137.328 60.3379 137.42 60.1523 137.482 59.9375C137.545 59.7227 137.576 59.4883 137.576 59.2344C137.576 58.9922 137.545 58.7656 137.482 58.5547C137.424 58.3398 137.336 58.1523 137.219 57.9922C137.102 57.8281 136.955 57.7012 136.779 57.6113C136.607 57.5176 136.408 57.4707 136.182 57.4707C135.9 57.4707 135.645 57.5371 135.414 57.6699C135.188 57.8027 135.004 57.9766 134.863 58.1914C134.727 58.4023 134.652 58.627 134.641 58.8652L134.102 58.6895C134.133 58.3262 134.213 58 134.342 57.7109C134.475 57.4219 134.648 57.1758 134.863 56.9727C135.078 56.7695 135.326 56.6152 135.607 56.5098C135.893 56.4004 136.205 56.3457 136.545 56.3457C136.959 56.3457 137.318 56.4238 137.623 56.5801C137.928 56.7363 138.18 56.9492 138.379 57.2188C138.582 57.4844 138.732 57.7891 138.83 58.1328C138.932 58.4727 138.982 58.8281 138.982 59.1992C138.982 59.6094 138.92 59.9922 138.795 60.3477C138.67 60.6992 138.486 61.0078 138.244 61.2734C138.006 61.5391 137.715 61.7461 137.371 61.8945C137.031 62.043 136.645 62.1172 136.211 62.1172C135.754 62.1172 135.346 62.0293 134.986 61.8535C134.631 61.6777 134.328 61.4355 134.078 61.127C133.832 60.8184 133.645 60.4629 133.516 60.0605C133.387 59.6582 133.322 59.2324 133.322 58.7832V58.1973C133.322 57.5488 133.404 56.9375 133.568 56.3633C133.732 55.7852 133.984 55.2754 134.324 54.834C134.668 54.3926 135.107 54.0469 135.643 53.7969C136.178 53.543 136.816 53.416 137.559 53.416Z"
            fill="#909599" />
        <circle cx="136" cy="20" r="2" fill="#C0C6CC" />
        <rect x="132" y="28" width="8" height="1" fill="#DADFE5" />
        <rect x="132" y="31" width="8" height="1" fill="#DADFE5" />
        <rect x="132" y="34" width="8" height="1" fill="#DADFE5" />
    </g>
    <rect x="27" y="12" width="16" height="56" rx="3" fill="white" />
    <path d="M36.3125 53.4395V62H34.9004V55.1152L32.8086 55.8242V54.6582L36.1426 53.4395H36.3125Z" fill="#909599" />
    <g opacity="0.5" filter="url(#filter8_f_988_10640)">
        <circle cx="35" cy="20" r="2" fill="#28C322" />
    </g>
    <circle cx="35" cy="20" r="2" fill="#28C322" />
    <rect x="31" y="28" width="8" height="1" fill="#DADFE5" />
    <rect x="31" y="31" width="8" height="1" fill="#DADFE5" />
    <rect x="31" y="34" width="8" height="1" fill="#DADFE5" />
    <defs>
        <filter id="filter0_f_988_10640" x="6.08496" y="65" width="247.83" height="28" filterUnits="userSpaceOnUse"
            color-interpolation-filters="sRGB">
            <feFlood flood-opacity="0" result="BackgroundImageFix" />
            <feBlend mode="normal" in="SourceGraphic" in2="BackgroundImageFix" result="shape" />
            <feGaussianBlur stdDeviation="4" result="effect1_foregroundBlur_988_10640" />
        </filter>
        <filter id="filter1_f_988_10640" x="12.8245" y="73" width="233.656" height="13" filterUnits="userSpaceOnUse"
            color-interpolation-filters="sRGB">
            <feFlood flood-opacity="0" result="BackgroundImageFix" />
            <feBlend mode="normal" in="SourceGraphic" in2="BackgroundImageFix" result="shape" />
            <feGaussianBlur stdDeviation="2" result="effect1_foregroundBlur_988_10640" />
        </filter>
        <filter id="filter2_iiii_988_10640" x="16" y="-2" width="228" height="84" filterUnits="userSpaceOnUse"
            color-interpolation-filters="sRGB">
            <feFlood flood-opacity="0" result="BackgroundImageFix" />
            <feBlend mode="normal" in="SourceGraphic" in2="BackgroundImageFix" result="shape" />
            <feColorMatrix in="SourceAlpha" type="matrix" values="0 0 0 0 0 0 0 0 0 0 0 0 0 0 0 0 0 0 127 0"
                result="hardAlpha" />
            <feOffset dy="2" />
            <feGaussianBlur stdDeviation="2" />
            <feComposite in2="hardAlpha" operator="arithmetic" k2="-1" k3="1" />
            <feColorMatrix type="matrix" values="0 0 0 0 1 0 0 0 0 1 0 0 0 0 1 0 0 0 0.15 0" />
            <feBlend mode="normal" in2="shape" result="effect1_innerShadow_988_10640" />
            <feColorMatrix in="SourceAlpha" type="matrix" values="0 0 0 0 0 0 0 0 0 0 0 0 0 0 0 0 0 0 127 0"
                result="hardAlpha" />
            <feOffset dy="1" />
            <feGaussianBlur stdDeviation="1" />
            <feComposite in2="hardAlpha" operator="arithmetic" k2="-1" k3="1" />
            <feColorMatrix type="matrix" values="0 0 0 0 1 0 0 0 0 1 0 0 0 0 1 0 0 0 0.2 0" />
            <feBlend mode="normal" in2="effect1_innerShadow_988_10640" result="effect2_innerShadow_988_10640" />
            <feColorMatrix in="SourceAlpha" type="matrix" values="0 0 0 0 0 0 0 0 0 0 0 0 0 0 0 0 0 0 127 0"
                result="hardAlpha" />
            <feOffset dy="-2" />
            <feGaussianBlur stdDeviation="2" />
            <feComposite in2="hardAlpha" operator="arithmetic" k2="-1" k3="1" />
            <feColorMatrix type="matrix" values="0 0 0 0 0.358333 0 0 0 0 0.375694 0 0 0 0 0.4 0 0 0 0.3 0" />
            <feBlend mode="normal" in2="effect2_innerShadow_988_10640" result="effect3_innerShadow_988_10640" />
            <feColorMatrix in="SourceAlpha" type="matrix" values="0 0 0 0 0 0 0 0 0 0 0 0 0 0 0 0 0 0 127 0"
                result="hardAlpha" />
            <feOffset dy="-1" />
            <feGaussianBlur stdDeviation="0.5" />
            <feComposite in2="hardAlpha" operator="arithmetic" k2="-1" k3="1" />
            <feColorMatrix type="matrix" values="0 0 0 0 1 0 0 0 0 1 0 0 0 0 1 0 0 0 0.05 0" />
            <feBlend mode="normal" in2="effect3_innerShadow_988_10640" result="effect4_innerShadow_988_10640" />
        </filter>
        <filter id="filter3_i_988_10640" x="24" y="8" width="124" height="65" filterUnits="userSpaceOnUse"
            color-interpolation-filters="sRGB">
            <feFlood flood-opacity="0" result="BackgroundImageFix" />
            <feBlend mode="normal" in="SourceGraphic" in2="BackgroundImageFix" result="shape" />
            <feColorMatrix in="SourceAlpha" type="matrix" values="0 0 0 0 0 0 0 0 0 0 0 0 0 0 0 0 0 0 127 0"
                result="hardAlpha" />
            <feOffset dy="1" />
            <feGaussianBlur stdDeviation="1" />
            <feComposite in2="hardAlpha" operator="arithmetic" k2="-1" k3="1" />
            <feColorMatrix type="matrix" values="0 0 0 0 0.537255 0 0 0 0 0.564706 0 0 0 0 0.6 0 0 0 0.3 0" />
            <feBlend mode="normal" in2="shape" result="effect1_innerShadow_988_10640" />
        </filter>
        <filter id="filter4_i_988_10640" x="152" y="8" width="84" height="65" filterUnits="userSpaceOnUse"
            color-interpolation-filters="sRGB">
            <feFlood flood-opacity="0" result="BackgroundImageFix" />
            <feBlend mode="normal" in="SourceGraphic" in2="BackgroundImageFix" result="shape" />
            <feColorMatrix in="SourceAlpha" type="matrix" values="0 0 0 0 0 0 0 0 0 0 0 0 0 0 0 0 0 0 127 0"
                result="hardAlpha" />
            <feOffset dy="1" />
            <feGaussianBlur stdDeviation="1" />
            <feComposite in2="hardAlpha" operator="arithmetic" k2="-1" k3="1" />
            <feColorMatrix type="matrix" values="0 0 0 0 0.537255 0 0 0 0 0.564706 0 0 0 0 0.6 0 0 0 0.3 0" />
            <feBlend mode="normal" in2="shape" result="effect1_innerShadow_988_10640" />
        </filter>
        <filter id="filter5_f_988_10640" x="158" y="14" width="12" height="12" filterUnits="userSpaceOnUse"
            color-interpolation-filters="sRGB">
            <feFlood flood-opacity="0" result="BackgroundImageFix" />
            <feBlend mode="normal" in="SourceGraphic" in2="BackgroundImageFix" result="shape" />
            <feGaussianBlur stdDeviation="2" result="effect1_foregroundBlur_988_10640" />
        </filter>
        <filter id="filter6_f_988_10640" x="49" y="14" width="12" height="12" filterUnits="userSpaceOnUse"
            color-interpolation-filters="sRGB">
            <feFlood flood-opacity="0" result="BackgroundImageFix" />
            <feBlend mode="normal" in="SourceGraphic" in2="BackgroundImageFix" result="shape" />
            <feGaussianBlur stdDeviation="2" result="effect1_foregroundBlur_988_10640" />
        </filter>
        <filter id="filter7_f_988_10640" x="70" y="14" width="12" height="12" filterUnits="userSpaceOnUse"
            color-interpolation-filters="sRGB">
            <feFlood flood-opacity="0" result="BackgroundImageFix" />
            <feBlend mode="normal" in="SourceGraphic" in2="BackgroundImageFix" result="shape" />
            <feGaussianBlur stdDeviation="2" result="effect1_foregroundBlur_988_10640" />
        </filter>
        <filter id="filter8_f_988_10640" x="29" y="14" width="12" height="12" filterUnits="userSpaceOnUse"
            color-interpolation-filters="sRGB">
            <feFlood flood-opacity="0" result="BackgroundImageFix" />
            <feBlend mode="normal" in="SourceGraphic" in2="BackgroundImageFix" result="shape" />
            <feGaussianBlur stdDeviation="2" result="effect1_foregroundBlur_988_10640" />
        </filter>
        <linearGradient id="paint0_linear_988_10640" x1="101.362" y1="-1.81024" x2="112.682" y2="84.0053"
            gradientUnits="userSpaceOnUse">
            <stop stop-color="#ACB4BF" />
            <stop offset="1" stop-color="#949CA6" />
        </linearGradient>
    </defs>
</svg>
