<svg width="224" height="80" viewBox="0 0 224 80" fill="none" xmlns="http://www.w3.org/2000/svg">
<g filter="url(#filter0_iiii_968_8364)">
<rect width="224" height="80" rx="8" fill="url(#paint0_linear_968_8364)"/>
</g>
<rect x="6.5" y="6.5" width="123" height="59" rx="3.5" stroke="#CFD8E5"/>
<rect x="134.5" y="6.5" width="83" height="59" rx="3.5" stroke="#CFD8E5"/>
<rect x="10" y="10" width="16" height="52" rx="3" fill="white"/>
<rect x="138" y="10" width="16" height="52" rx="3" fill="white"/>
<rect x="158" y="10" width="16" height="52" rx="3" fill="white"/>
<rect x="178" y="10" width="16" height="52" rx="3" fill="white"/>
<rect x="198" y="10" width="16" height="52" rx="3" fill="white"/>
<rect x="30" y="10" width="16" height="52" rx="3" fill="white"/>
<rect x="50" y="10" width="16" height="52" rx="3" fill="white"/>
<rect x="70" y="10" width="16" height="52" rx="3" fill="white"/>
<rect x="90" y="10" width="16" height="52" rx="3" fill="white"/>
<rect x="110" y="10" width="16" height="52" rx="3" fill="white"/>
<path d="M63.8369 71.8594V72.8311H60.0625V71.8594H63.8369ZM60.3652 68.8906V76H59.1396V68.8906H60.3652ZM64.7793 68.8906V76H63.5586V68.8906H64.7793ZM68.3047 76H66.7861L66.7959 75.0283H68.3047C68.7441 75.0283 69.112 74.9323 69.4082 74.7402C69.7077 74.5482 69.9323 74.2731 70.082 73.915C70.235 73.557 70.3115 73.1305 70.3115 72.6357V72.25C70.3115 71.8659 70.2676 71.5257 70.1797 71.2295C70.0951 70.9333 69.9681 70.6842 69.7988 70.4824C69.6328 70.2806 69.4277 70.1276 69.1836 70.0234C68.9427 69.9193 68.6644 69.8672 68.3486 69.8672H66.7568V68.8906H68.3486C68.8206 68.8906 69.252 68.9704 69.6426 69.1299C70.0332 69.2861 70.3701 69.5124 70.6533 69.8086C70.9398 70.1048 71.1595 70.4596 71.3125 70.873C71.4655 71.2865 71.542 71.7487 71.542 72.2598V72.6357C71.542 73.1468 71.4655 73.609 71.3125 74.0225C71.1595 74.4359 70.9398 74.7907 70.6533 75.0869C70.3669 75.3799 70.0251 75.6061 69.6279 75.7656C69.234 75.9219 68.793 76 68.3047 76ZM67.4648 68.8906V76H66.2393V68.8906H67.4648ZM74.8379 76H73.3193L73.3291 75.0283H74.8379C75.2773 75.0283 75.6452 74.9323 75.9414 74.7402C76.2409 74.5482 76.4655 74.2731 76.6152 73.915C76.7682 73.557 76.8447 73.1305 76.8447 72.6357V72.25C76.8447 71.8659 76.8008 71.5257 76.7129 71.2295C76.6283 70.9333 76.5013 70.6842 76.332 70.4824C76.166 70.2806 75.9609 70.1276 75.7168 70.0234C75.4759 69.9193 75.1976 69.8672 74.8818 69.8672H73.29V68.8906H74.8818C75.3538 68.8906 75.7852 68.9704 76.1758 69.1299C76.5664 69.2861 76.9033 69.5124 77.1865 69.8086C77.473 70.1048 77.6927 70.4596 77.8457 70.873C77.9987 71.2865 78.0752 71.7487 78.0752 72.2598V72.6357C78.0752 73.1468 77.9987 73.609 77.8457 74.0225C77.6927 74.4359 77.473 74.7907 77.1865 75.0869C76.9001 75.3799 76.5583 75.6061 76.1611 75.7656C75.7673 75.9219 75.3262 76 74.8379 76ZM73.998 68.8906V76H72.7725V68.8906H73.998Z" fill="white"/>
<path d="M171.642 74.1689C171.642 74.0225 171.619 73.8923 171.573 73.7783C171.531 73.6644 171.454 73.5602 171.344 73.4658C171.233 73.3714 171.077 73.2803 170.875 73.1924C170.676 73.1012 170.423 73.0085 170.113 72.9141C169.775 72.8099 169.462 72.6943 169.176 72.5674C168.893 72.4372 168.645 72.2874 168.434 72.1182C168.222 71.9456 168.058 71.7487 167.94 71.5273C167.823 71.3027 167.765 71.0439 167.765 70.751C167.765 70.4613 167.825 70.1976 167.945 69.96C168.069 69.7223 168.243 69.5173 168.468 69.3447C168.696 69.1689 168.964 69.0339 169.273 68.9395C169.583 68.8418 169.924 68.793 170.299 68.793C170.826 68.793 171.28 68.8906 171.661 69.0859C172.045 69.2812 172.34 69.5433 172.545 69.8721C172.753 70.2008 172.857 70.5638 172.857 70.9609H171.642C171.642 70.7266 171.591 70.5199 171.49 70.3408C171.393 70.1585 171.243 70.0153 171.041 69.9111C170.842 69.807 170.59 69.7549 170.284 69.7549C169.994 69.7549 169.754 69.7988 169.562 69.8867C169.369 69.9746 169.226 70.0934 169.132 70.2432C169.037 70.3929 168.99 70.5622 168.99 70.751C168.99 70.8844 169.021 71.0065 169.083 71.1172C169.145 71.2246 169.239 71.3255 169.366 71.4199C169.493 71.5111 169.653 71.5973 169.845 71.6787C170.037 71.7601 170.263 71.8382 170.523 71.9131C170.917 72.0303 171.261 72.1605 171.554 72.3037C171.847 72.4437 172.091 72.6032 172.286 72.7822C172.481 72.9613 172.628 73.1647 172.726 73.3926C172.823 73.6172 172.872 73.8727 172.872 74.1592C172.872 74.4587 172.812 74.7288 172.691 74.9697C172.571 75.2074 172.398 75.4108 172.174 75.5801C171.952 75.7461 171.686 75.8747 171.373 75.9658C171.064 76.0537 170.719 76.0977 170.338 76.0977C169.996 76.0977 169.659 76.0521 169.327 75.9609C168.998 75.8698 168.699 75.7314 168.429 75.5459C168.159 75.3571 167.944 75.1227 167.784 74.8428C167.625 74.5596 167.545 74.2292 167.545 73.8516H168.771C168.771 74.0827 168.81 74.2796 168.888 74.4424C168.969 74.6051 169.081 74.7386 169.225 74.8428C169.368 74.9437 169.534 75.0186 169.723 75.0674C169.915 75.1162 170.12 75.1406 170.338 75.1406C170.624 75.1406 170.864 75.0999 171.056 75.0186C171.251 74.9372 171.397 74.8232 171.495 74.6768C171.593 74.5303 171.642 74.361 171.642 74.1689ZM177.696 74.1689C177.696 74.0225 177.674 73.8923 177.628 73.7783C177.586 73.6644 177.509 73.5602 177.398 73.4658C177.288 73.3714 177.132 73.2803 176.93 73.1924C176.731 73.1012 176.477 73.0085 176.168 72.9141C175.829 72.8099 175.517 72.6943 175.23 72.5674C174.947 72.4372 174.7 72.2874 174.488 72.1182C174.277 71.9456 174.112 71.7487 173.995 71.5273C173.878 71.3027 173.819 71.0439 173.819 70.751C173.819 70.4613 173.88 70.1976 174 69.96C174.124 69.7223 174.298 69.5173 174.522 69.3447C174.75 69.1689 175.019 69.0339 175.328 68.9395C175.637 68.8418 175.979 68.793 176.354 68.793C176.881 68.793 177.335 68.8906 177.716 69.0859C178.1 69.2812 178.395 69.5433 178.6 69.8721C178.808 70.2008 178.912 70.5638 178.912 70.9609H177.696C177.696 70.7266 177.646 70.5199 177.545 70.3408C177.447 70.1585 177.298 70.0153 177.096 69.9111C176.897 69.807 176.645 69.7549 176.339 69.7549C176.049 69.7549 175.808 69.7988 175.616 69.8867C175.424 69.9746 175.281 70.0934 175.187 70.2432C175.092 70.3929 175.045 70.5622 175.045 70.751C175.045 70.8844 175.076 71.0065 175.138 71.1172C175.2 71.2246 175.294 71.3255 175.421 71.4199C175.548 71.5111 175.707 71.5973 175.899 71.6787C176.091 71.7601 176.318 71.8382 176.578 71.9131C176.972 72.0303 177.315 72.1605 177.608 72.3037C177.901 72.4437 178.146 72.6032 178.341 72.7822C178.536 72.9613 178.683 73.1647 178.78 73.3926C178.878 73.6172 178.927 73.8727 178.927 74.1592C178.927 74.4587 178.867 74.7288 178.746 74.9697C178.626 75.2074 178.453 75.4108 178.229 75.5801C178.007 75.7461 177.74 75.8747 177.428 75.9658C177.118 76.0537 176.773 76.0977 176.393 76.0977C176.051 76.0977 175.714 76.0521 175.382 75.9609C175.053 75.8698 174.754 75.7314 174.483 75.5459C174.213 75.3571 173.998 75.1227 173.839 74.8428C173.679 74.5596 173.6 74.2292 173.6 73.8516H174.825C174.825 74.0827 174.864 74.2796 174.942 74.4424C175.024 74.6051 175.136 74.7386 175.279 74.8428C175.423 74.9437 175.589 75.0186 175.777 75.0674C175.969 75.1162 176.174 75.1406 176.393 75.1406C176.679 75.1406 176.918 75.0999 177.11 75.0186C177.306 74.9372 177.452 74.8232 177.55 74.6768C177.647 74.5303 177.696 74.361 177.696 74.1689ZM182.076 76H180.558L180.567 75.0283H182.076C182.516 75.0283 182.883 74.9323 183.18 74.7402C183.479 74.5482 183.704 74.2731 183.854 73.915C184.007 73.557 184.083 73.1305 184.083 72.6357V72.25C184.083 71.8659 184.039 71.5257 183.951 71.2295C183.867 70.9333 183.74 70.6842 183.57 70.4824C183.404 70.2806 183.199 70.1276 182.955 70.0234C182.714 69.9193 182.436 69.8672 182.12 69.8672H180.528V68.8906H182.12C182.592 68.8906 183.023 68.9704 183.414 69.1299C183.805 69.2861 184.142 69.5124 184.425 69.8086C184.711 70.1048 184.931 70.4596 185.084 70.873C185.237 71.2865 185.313 71.7487 185.313 72.2598V72.6357C185.313 73.1468 185.237 73.609 185.084 74.0225C184.931 74.4359 184.711 74.7907 184.425 75.0869C184.138 75.3799 183.797 75.6061 183.399 75.7656C183.006 75.9219 182.564 76 182.076 76ZM181.236 68.8906V76H180.011V68.8906H181.236Z" fill="white"/>
<path d="M19.3125 47.4395V56H17.9004V49.1152L15.8086 49.8242V48.6582L19.1426 47.4395H19.3125Z" fill="#909599"/>
<path d="M40.9531 54.875V56H35.2344V55.0332L38.0117 52.0039C38.3164 51.6602 38.5566 51.3633 38.7324 51.1133C38.9082 50.8633 39.0312 50.6387 39.1016 50.4395C39.1758 50.2363 39.2129 50.0391 39.2129 49.8477C39.2129 49.5781 39.1621 49.3418 39.0605 49.1387C38.9629 48.9316 38.8184 48.7695 38.627 48.6523C38.4355 48.5312 38.2031 48.4707 37.9297 48.4707C37.6133 48.4707 37.3477 48.5391 37.1328 48.6758C36.918 48.8125 36.7559 49.002 36.6465 49.2441C36.5371 49.4824 36.4824 49.7559 36.4824 50.0645H35.0703C35.0703 49.5684 35.1836 49.1152 35.4102 48.7051C35.6367 48.291 35.9648 47.9629 36.3945 47.7207C36.8242 47.4746 37.3418 47.3516 37.9473 47.3516C38.5176 47.3516 39.002 47.4473 39.4004 47.6387C39.7988 47.8301 40.1016 48.1016 40.3086 48.4531C40.5195 48.8047 40.625 49.2207 40.625 49.7012C40.625 49.9668 40.582 50.2305 40.4961 50.4922C40.4102 50.7539 40.2871 51.0156 40.127 51.2773C39.9707 51.5352 39.7852 51.7949 39.5703 52.0566C39.3555 52.3145 39.1191 52.5762 38.8613 52.8418L37.0156 54.875H40.9531Z" fill="#909599"/>
<path d="M56.8926 51.0957H57.7363C58.0645 51.0957 58.3359 51.0391 58.5508 50.9258C58.7695 50.8125 58.9316 50.6562 59.0371 50.457C59.1426 50.2578 59.1953 50.0293 59.1953 49.7715C59.1953 49.502 59.1465 49.2715 59.0488 49.0801C58.9551 48.8848 58.8105 48.7344 58.6152 48.6289C58.4238 48.5234 58.1797 48.4707 57.8828 48.4707C57.6328 48.4707 57.4062 48.5215 57.2031 48.623C57.0039 48.7207 56.8457 48.8613 56.7285 49.0449C56.6113 49.2246 56.5527 49.4395 56.5527 49.6895H55.1348C55.1348 49.2363 55.2539 48.834 55.4922 48.4824C55.7305 48.1309 56.0547 47.8555 56.4648 47.6562C56.8789 47.4531 57.3438 47.3516 57.8594 47.3516C58.4102 47.3516 58.8906 47.4434 59.3008 47.627C59.7148 47.8066 60.0371 48.0762 60.2676 48.4355C60.498 48.7949 60.6133 49.2402 60.6133 49.7715C60.6133 50.0137 60.5566 50.2598 60.4434 50.5098C60.3301 50.7598 60.1621 50.9883 59.9395 51.1953C59.7168 51.3984 59.4395 51.5645 59.1074 51.6934C58.7754 51.8184 58.3906 51.8809 57.9531 51.8809H56.8926V51.0957ZM56.8926 52.1973V51.4238H57.9531C58.4531 51.4238 58.8789 51.4824 59.2305 51.5996C59.5859 51.7168 59.875 51.8789 60.0977 52.0859C60.3203 52.2891 60.4824 52.5215 60.584 52.7832C60.6895 53.0449 60.7422 53.3223 60.7422 53.6152C60.7422 54.0137 60.6699 54.3691 60.5254 54.6816C60.3848 54.9902 60.1836 55.252 59.9219 55.4668C59.6602 55.6816 59.3535 55.8438 59.002 55.9531C58.6543 56.0625 58.2754 56.1172 57.8652 56.1172C57.498 56.1172 57.1465 56.0664 56.8105 55.9648C56.4746 55.8633 56.1738 55.7129 55.9082 55.5137C55.6426 55.3105 55.4316 55.0586 55.2754 54.7578C55.123 54.4531 55.0469 54.1016 55.0469 53.7031H56.459C56.459 53.957 56.5176 54.1816 56.6348 54.377C56.7559 54.5684 56.9238 54.7188 57.1387 54.8281C57.3574 54.9375 57.6074 54.9922 57.8887 54.9922C58.1855 54.9922 58.4414 54.9395 58.6562 54.834C58.8711 54.7285 59.0352 54.5723 59.1484 54.3652C59.2656 54.1582 59.3242 53.9082 59.3242 53.6152C59.3242 53.2832 59.2598 53.0137 59.1309 52.8066C59.002 52.5996 58.8184 52.4473 58.5801 52.3496C58.3418 52.248 58.0605 52.1973 57.7363 52.1973H56.8926Z" fill="#909599"/>
<path d="M81.1113 52.959V54.084H74.959L74.9121 53.2344L78.5918 47.4688H79.7227L78.498 49.5664L76.3828 52.959H81.1113ZM80.0449 47.4688V56H78.6328V47.4688H80.0449Z" fill="#909599"/>
<path d="M96.7168 52.0332L95.5918 51.7578L96.0547 47.4688H100.654V48.6641H97.2266L96.9922 50.7559C97.125 50.6777 97.3086 50.6016 97.543 50.5273C97.7773 50.4492 98.0449 50.4102 98.3457 50.4102C98.748 50.4102 99.1074 50.4766 99.4238 50.6094C99.7441 50.7383 100.016 50.9277 100.238 51.1777C100.461 51.4238 100.631 51.7246 100.748 52.0801C100.865 52.4316 100.924 52.8281 100.924 53.2695C100.924 53.6641 100.865 54.0332 100.748 54.377C100.635 54.7207 100.463 55.0234 100.232 55.2852C100.002 55.5469 99.7109 55.752 99.3594 55.9004C99.0117 56.0449 98.5996 56.1172 98.123 56.1172C97.7676 56.1172 97.4258 56.0664 97.0977 55.9648C96.7734 55.8594 96.4824 55.7051 96.2246 55.502C95.9668 55.2949 95.7598 55.041 95.6035 54.7402C95.4473 54.4355 95.3574 54.0859 95.334 53.6914H96.7168C96.752 53.9688 96.8281 54.2051 96.9453 54.4004C97.0664 54.5918 97.2266 54.7383 97.4258 54.8398C97.625 54.9414 97.8555 54.9922 98.1172 54.9922C98.3555 54.9922 98.5605 54.9512 98.7324 54.8691C98.9043 54.7832 99.0469 54.6621 99.1602 54.5059C99.2773 54.3457 99.3633 54.1582 99.418 53.9434C99.4766 53.7285 99.5059 53.4902 99.5059 53.2285C99.5059 52.9785 99.4727 52.75 99.4062 52.543C99.3438 52.3359 99.248 52.1562 99.1191 52.0039C98.9941 51.8516 98.8359 51.7344 98.6445 51.6523C98.4531 51.5664 98.2324 51.5234 97.9824 51.5234C97.6465 51.5234 97.3887 51.5723 97.209 51.6699C97.0332 51.7676 96.8691 51.8887 96.7168 52.0332Z" fill="#909599"/>
<path d="M119.559 47.416H119.734V48.5703H119.635C119.131 48.5703 118.695 48.6484 118.328 48.8047C117.965 48.9609 117.666 49.1758 117.432 49.4492C117.197 49.7227 117.021 50.043 116.904 50.4102C116.791 50.7734 116.734 51.1602 116.734 51.5703V52.9121C116.734 53.252 116.771 53.5527 116.846 53.8145C116.92 54.0723 117.023 54.2891 117.156 54.4648C117.293 54.6367 117.449 54.7676 117.625 54.8574C117.801 54.9473 117.99 54.9922 118.193 54.9922C118.404 54.9922 118.596 54.9492 118.768 54.8633C118.939 54.7734 119.086 54.6504 119.207 54.4941C119.328 54.3379 119.42 54.1523 119.482 53.9375C119.545 53.7227 119.576 53.4883 119.576 53.2344C119.576 52.9922 119.545 52.7656 119.482 52.5547C119.424 52.3398 119.336 52.1523 119.219 51.9922C119.102 51.8281 118.955 51.7012 118.779 51.6113C118.607 51.5176 118.408 51.4707 118.182 51.4707C117.9 51.4707 117.645 51.5371 117.414 51.6699C117.188 51.8027 117.004 51.9766 116.863 52.1914C116.727 52.4023 116.652 52.627 116.641 52.8652L116.102 52.6895C116.133 52.3262 116.213 52 116.342 51.7109C116.475 51.4219 116.648 51.1758 116.863 50.9727C117.078 50.7695 117.326 50.6152 117.607 50.5098C117.893 50.4004 118.205 50.3457 118.545 50.3457C118.959 50.3457 119.318 50.4238 119.623 50.5801C119.928 50.7363 120.18 50.9492 120.379 51.2188C120.582 51.4844 120.732 51.7891 120.83 52.1328C120.932 52.4727 120.982 52.8281 120.982 53.1992C120.982 53.6094 120.92 53.9922 120.795 54.3477C120.67 54.6992 120.486 55.0078 120.244 55.2734C120.006 55.5391 119.715 55.7461 119.371 55.8945C119.031 56.043 118.645 56.1172 118.211 56.1172C117.754 56.1172 117.346 56.0293 116.986 55.8535C116.631 55.6777 116.328 55.4355 116.078 55.127C115.832 54.8184 115.645 54.4629 115.516 54.0605C115.387 53.6582 115.322 53.2324 115.322 52.7832V52.1973C115.322 51.5488 115.404 50.9375 115.568 50.3633C115.732 49.7852 115.984 49.2754 116.324 48.834C116.668 48.3926 117.107 48.0469 117.643 47.7969C118.178 47.543 118.816 47.416 119.559 47.416Z" fill="#909599"/>
<path d="M146.211 48.6055L143.662 56H142.121L145.332 47.4688H146.316L146.211 48.6055ZM148.344 56L145.789 48.6055L145.678 47.4688H146.668L149.891 56H148.344ZM148.221 52.8359V54.002H143.58V52.8359H148.221Z" fill="#909599"/>
<path d="M166.275 52.1445H164.102L164.09 51.0723H165.988C166.309 51.0723 166.58 51.0254 166.803 50.9316C167.029 50.834 167.201 50.6953 167.318 50.5156C167.436 50.332 167.494 50.1113 167.494 49.8535C167.494 49.5684 167.439 49.3359 167.33 49.1562C167.221 48.9766 167.053 48.8457 166.826 48.7637C166.604 48.6816 166.318 48.6406 165.971 48.6406H164.547V56H163.076V47.4688H165.971C166.439 47.4688 166.857 47.5137 167.225 47.6035C167.596 47.6934 167.91 47.834 168.168 48.0254C168.43 48.2129 168.627 48.4512 168.76 48.7402C168.896 49.0293 168.965 49.373 168.965 49.7715C168.965 50.123 168.881 50.4453 168.713 50.7383C168.545 51.0273 168.297 51.2637 167.969 51.4473C167.641 51.6309 167.232 51.7402 166.744 51.7754L166.275 52.1445ZM166.211 56H163.639L164.301 54.834H166.211C166.543 54.834 166.82 54.7793 167.043 54.6699C167.266 54.5566 167.432 54.4023 167.541 54.207C167.654 54.0078 167.711 53.7754 167.711 53.5098C167.711 53.2324 167.662 52.9922 167.564 52.7891C167.467 52.582 167.312 52.4238 167.102 52.3145C166.891 52.2012 166.615 52.1445 166.275 52.1445H164.623L164.635 51.0723H166.785L167.119 51.4766C167.588 51.4922 167.973 51.5957 168.273 51.7871C168.578 51.9785 168.805 52.2266 168.953 52.5312C169.102 52.8359 169.176 53.1641 169.176 53.5156C169.176 54.0586 169.057 54.5137 168.818 54.8809C168.584 55.248 168.246 55.5273 167.805 55.7188C167.363 55.9062 166.832 56 166.211 56Z" fill="#909599"/>
<path d="M187.986 53.2227H189.451C189.404 53.7812 189.248 54.2793 188.982 54.7168C188.717 55.1504 188.344 55.4922 187.863 55.7422C187.383 55.9922 186.799 56.1172 186.111 56.1172C185.584 56.1172 185.109 56.0234 184.688 55.8359C184.266 55.6445 183.904 55.375 183.604 55.0273C183.303 54.6758 183.072 54.252 182.912 53.7559C182.756 53.2598 182.678 52.7051 182.678 52.0918V51.3828C182.678 50.7695 182.758 50.2148 182.918 49.7188C183.082 49.2227 183.316 48.7988 183.621 48.4473C183.926 48.0918 184.291 47.8203 184.717 47.6328C185.146 47.4453 185.629 47.3516 186.164 47.3516C186.844 47.3516 187.418 47.4766 187.887 47.7266C188.355 47.9766 188.719 48.3223 188.977 48.7637C189.238 49.2051 189.398 49.7109 189.457 50.2812H187.992C187.953 49.9141 187.867 49.5996 187.734 49.3379C187.605 49.0762 187.414 48.877 187.16 48.7402C186.906 48.5996 186.574 48.5293 186.164 48.5293C185.828 48.5293 185.535 48.5918 185.285 48.7168C185.035 48.8418 184.826 49.0254 184.658 49.2676C184.49 49.5098 184.363 49.8086 184.277 50.1641C184.195 50.5156 184.154 50.918 184.154 51.3711V52.0918C184.154 52.5215 184.191 52.9121 184.266 53.2637C184.344 53.6113 184.461 53.9102 184.617 54.1602C184.777 54.4102 184.98 54.6035 185.227 54.7402C185.473 54.877 185.768 54.9453 186.111 54.9453C186.529 54.9453 186.867 54.8789 187.125 54.7461C187.387 54.6133 187.584 54.4199 187.717 54.166C187.854 53.9082 187.943 53.5938 187.986 53.2227Z" fill="#909599"/>
<path d="M205.426 56H203.604L203.615 54.834H205.426C205.953 54.834 206.395 54.7188 206.75 54.4883C207.109 54.2578 207.379 53.9277 207.559 53.498C207.742 53.0684 207.834 52.5566 207.834 51.9629V51.5C207.834 51.0391 207.781 50.6309 207.676 50.2754C207.574 49.9199 207.422 49.6211 207.219 49.3789C207.02 49.1367 206.773 48.9531 206.48 48.8281C206.191 48.7031 205.857 48.6406 205.479 48.6406H203.568V47.4688H205.479C206.045 47.4688 206.562 47.5645 207.031 47.7559C207.5 47.9434 207.904 48.2148 208.244 48.5703C208.588 48.9258 208.852 49.3516 209.035 49.8477C209.219 50.3438 209.311 50.8984 209.311 51.5117V51.9629C209.311 52.5762 209.219 53.1309 209.035 53.627C208.852 54.123 208.588 54.5488 208.244 54.9043C207.9 55.2559 207.49 55.5273 207.014 55.7188C206.541 55.9062 206.012 56 205.426 56ZM204.418 47.4688V56H202.947V47.4688H204.418Z" fill="#909599"/>

<circle cx="18" cy="18" r="2" fill="#F26224"/>

<g opacity="0.5" filter="url(#filter2_f_968_8364)">
<circle cx="38" cy="18" r="2" fill="#28C322"/>
</g>
<circle cx="38" cy="18" r="2" fill="#28C322"/>

<g opacity="0.5" filter="url(#filter3_f_968_8364)">
<circle cx="58" cy="18" r="2" fill="#F26224"/>
</g>
<circle cx="58" cy="18" r="2" fill="#F26224"/>

<g opacity="0.5" filter="url(#filter4_f_968_8364)">
<circle cx="78" cy="18" r="2" fill="#F26224"/>
</g>
<circle cx="78" cy="18" r="2" fill="#C0C6CC"/>

<g opacity="0.5" filter="url(#filter5_f_968_8364)">
<circle cx="98" cy="18" r="2" fill="#F26224"/>
</g>
<circle cx="98" cy="18" r="2" fill="#C0C6CC"/>

<g opacity="0.5" filter="url(#filter6_f_968_8364)">
<circle cx="118" cy="18" r="2" fill="#F26224"/>
</g>
<circle cx="118" cy="18" r="2" fill="#C0C6CC"/>


<circle cx="146" cy="18" r="2" fill="#C0C6CC"/>
<circle cx="166" cy="18" r="2" fill="#C0C6CC"/>
<circle cx="186" cy="18" r="2" fill="#C0C6CC"/>
<circle cx="206" cy="18" r="2" fill="#C0C6CC"/>
<defs>
<filter id="filter0_iiii_968_8364" x="0" y="-2" width="224" height="84" filterUnits="userSpaceOnUse" color-interpolation-filters="sRGB">
<feFlood flood-opacity="0" result="BackgroundImageFix"/>
<feBlend mode="normal" in="SourceGraphic" in2="BackgroundImageFix" result="shape"/>
<feColorMatrix in="SourceAlpha" type="matrix" values="0 0 0 0 0 0 0 0 0 0 0 0 0 0 0 0 0 0 127 0" result="hardAlpha"/>
<feOffset dy="2"/>
<feGaussianBlur stdDeviation="2"/>
<feComposite in2="hardAlpha" operator="arithmetic" k2="-1" k3="1"/>
<feColorMatrix type="matrix" values="0 0 0 0 1 0 0 0 0 1 0 0 0 0 1 0 0 0 0.15 0"/>
<feBlend mode="normal" in2="shape" result="effect1_innerShadow_968_8364"/>
<feColorMatrix in="SourceAlpha" type="matrix" values="0 0 0 0 0 0 0 0 0 0 0 0 0 0 0 0 0 0 127 0" result="hardAlpha"/>
<feOffset dy="1"/>
<feGaussianBlur stdDeviation="1"/>
<feComposite in2="hardAlpha" operator="arithmetic" k2="-1" k3="1"/>
<feColorMatrix type="matrix" values="0 0 0 0 1 0 0 0 0 1 0 0 0 0 1 0 0 0 0.2 0"/>
<feBlend mode="normal" in2="effect1_innerShadow_968_8364" result="effect2_innerShadow_968_8364"/>
<feColorMatrix in="SourceAlpha" type="matrix" values="0 0 0 0 0 0 0 0 0 0 0 0 0 0 0 0 0 0 127 0" result="hardAlpha"/>
<feOffset dy="-2"/>
<feGaussianBlur stdDeviation="2"/>
<feComposite in2="hardAlpha" operator="arithmetic" k2="-1" k3="1"/>
<feColorMatrix type="matrix" values="0 0 0 0 0.358333 0 0 0 0 0.375694 0 0 0 0 0.4 0 0 0 0.3 0"/>
<feBlend mode="normal" in2="effect2_innerShadow_968_8364" result="effect3_innerShadow_968_8364"/>
<feColorMatrix in="SourceAlpha" type="matrix" values="0 0 0 0 0 0 0 0 0 0 0 0 0 0 0 0 0 0 127 0" result="hardAlpha"/>
<feOffset dy="-1"/>
<feGaussianBlur stdDeviation="0.5"/>
<feComposite in2="hardAlpha" operator="arithmetic" k2="-1" k3="1"/>
<feColorMatrix type="matrix" values="0 0 0 0 1 0 0 0 0 1 0 0 0 0 1 0 0 0 0.05 0"/>
<feBlend mode="normal" in2="effect3_innerShadow_968_8364" result="effect4_innerShadow_968_8364"/>
</filter>
<filter id="filter1_f_968_8364" x="12" y="12" width="12" height="12" filterUnits="userSpaceOnUse" color-interpolation-filters="sRGB">
<feFlood flood-opacity="0" result="BackgroundImageFix"/>
<feBlend mode="normal" in="SourceGraphic" in2="BackgroundImageFix" result="shape"/>
<feGaussianBlur stdDeviation="2" result="effect1_foregroundBlur_968_8364"/>
</filter>
<filter id="filter2_f_968_8364" x="32" y="12" width="12" height="12" filterUnits="userSpaceOnUse" color-interpolation-filters="sRGB">
<feFlood flood-opacity="0" result="BackgroundImageFix"/>
<feBlend mode="normal" in="SourceGraphic" in2="BackgroundImageFix" result="shape"/>
<feGaussianBlur stdDeviation="2" result="effect1_foregroundBlur_968_8364"/>
</filter>
<filter id="filter3_f_968_8364" x="52" y="12" width="12" height="12" filterUnits="userSpaceOnUse" color-interpolation-filters="sRGB">
<feFlood flood-opacity="0" result="BackgroundImageFix"/>
<feBlend mode="normal" in="SourceGraphic" in2="BackgroundImageFix" result="shape"/>
<feGaussianBlur stdDeviation="2" result="effect1_foregroundBlur_968_8364"/>
</filter>
<filter id="filter4_f_968_8364" x="72" y="12" width="12" height="12" filterUnits="userSpaceOnUse" color-interpolation-filters="sRGB">
<feFlood flood-opacity="0" result="BackgroundImageFix"/>
<feBlend mode="normal" in="SourceGraphic" in2="BackgroundImageFix" result="shape"/>
<feGaussianBlur stdDeviation="2" result="effect1_foregroundBlur_968_8364"/>
</filter>
<filter id="filter5_f_968_8364" x="92" y="12" width="12" height="12" filterUnits="userSpaceOnUse" color-interpolation-filters="sRGB">
<feFlood flood-opacity="0" result="BackgroundImageFix"/>
<feBlend mode="normal" in="SourceGraphic" in2="BackgroundImageFix" result="shape"/>
<feGaussianBlur stdDeviation="2" result="effect1_foregroundBlur_968_8364"/>
</filter>
<filter id="filter6_f_968_8364" x="112" y="12" width="12" height="12" filterUnits="userSpaceOnUse" color-interpolation-filters="sRGB">
<feFlood flood-opacity="0" result="BackgroundImageFix"/>
<feBlend mode="normal" in="SourceGraphic" in2="BackgroundImageFix" result="shape"/>
<feGaussianBlur stdDeviation="2" result="effect1_foregroundBlur_968_8364"/>
</filter>
<linearGradient id="paint0_linear_968_8364" x1="83.8646" y1="-1.81024" x2="95.379" y2="83.9525" gradientUnits="userSpaceOnUse">
<stop stop-color="#ACB4BF"/>
<stop offset="1" stop-color="#899099"/>
</linearGradient>
</defs>
<g opacity="0.5" filter="url(#filter1_f_968_8364)">
<circle cx="18" cy="18" r="2" fill="#F26224"/>
</g>
</svg>
