<svg ref="ZimaCubeSketchRef" width="366" height="100" viewBox="0 0 366 100" fill="none"
    xmlns="http://www.w3.org/2000/svg">
    <g opacity="0.8">
        <g opacity="0.4" filter="url(#filter0_f_988_10640)">
            <path
                d="M10 79C10 76.7909 11.7909 75 14 75H86C88.2091 75 90 76.7909 90 79V81C90 83.2091 88.2091 85 86 85H14C11.7909 85 10 83.2091 10 81V79Z"
                fill="#6C7480" />
        </g>
        <g opacity="0.6" filter="url(#filter1_f_988_10640)">
            <path
                d="M16 81C16 79.8954 16.8954 79 18 79H82C83.1046 79 84 79.8954 84 81C84 82.1046 83.1046 83 82 83H18C16.8954 83 16 82.1046 16 81Z"
                fill="#6C7480" />
        </g>
    </g>
    <g filter="url(#filter2_iiii_988_10640)">
        <rect x="10" width="80" height="80" rx="4" fill="url(#paint0_linear_988_10640)" />
    </g>
    <path
        d="M14 6C14 4.89543 14.8954 4 16 4H84C85.1046 4 86 4.89543 86 6V21C86 22.1046 85.1046 23 84 23H16C14.8954 23 14 22.1046 14 21V6Z"
        fill="#DADFE6" />
    <path fill-rule="evenodd" clip-rule="evenodd"
        d="M36.3855 31.5C36.3855 31.0692 36.0362 30.72 35.6055 30.72H31.6673C31.2365 30.72 30.8873 31.0692 30.8873 31.5C30.8873 31.9308 31.2365 32.28 31.6673 32.28H35.6055C36.0362 32.28 36.3855 31.9308 36.3855 31.5ZM31.2146 31.3699C31.2146 31.1904 31.3601 31.0449 31.5396 31.0449H35.7332C35.9127 31.0449 36.0582 31.1904 36.0582 31.3699V31.4331C36.0582 31.5777 35.941 31.6949 35.7965 31.6949H35.5998C35.5639 31.6949 35.5347 31.724 35.5347 31.7599C35.5347 31.7959 35.5056 31.825 35.4697 31.825H34.9453C34.9093 31.825 34.8802 31.7959 34.8802 31.7599C34.8802 31.724 34.8511 31.6949 34.8151 31.6949H34.5525C34.5165 31.6949 34.4874 31.724 34.4874 31.7599C34.4874 31.7959 34.4583 31.825 34.4223 31.825H33.8979C33.862 31.825 33.8329 31.7959 33.8329 31.7599C33.8329 31.724 33.8037 31.6949 33.7678 31.6949H33.5051C33.4692 31.6949 33.4401 31.724 33.4401 31.7599C33.4401 31.7959 33.4109 31.825 33.375 31.825H32.8506C32.8146 31.825 32.7855 31.7959 32.7855 31.7599C32.7855 31.724 32.7564 31.6949 32.7205 31.6949H32.4578C32.4219 31.6949 32.3927 31.724 32.3927 31.7599C32.3927 31.7959 32.3636 31.825 32.3277 31.825H31.8032C31.7673 31.825 31.7382 31.7959 31.7382 31.7599C31.7382 31.724 31.7091 31.6949 31.6731 31.6949H31.4764C31.3318 31.6949 31.2146 31.5777 31.2146 31.4331V31.3699Z"
        fill="#DADFE6" />
    <path fill-rule="evenodd" clip-rule="evenodd"
        d="M41.36 31.5C41.36 31.0692 41.7092 30.72 42.14 30.72H46.0782C46.509 30.72 46.8582 31.0692 46.8582 31.5C46.8582 31.9308 46.509 32.28 46.0782 32.28H42.14C41.7092 32.28 41.36 31.9308 41.36 31.5ZM41.6873 31.3699C41.6873 31.1904 41.8328 31.0449 42.0123 31.0449H46.2059C46.3854 31.0449 46.5309 31.1904 46.5309 31.3699V31.4331C46.5309 31.5777 46.4138 31.6949 46.2692 31.6949H46.0725C46.0366 31.6949 46.0075 31.724 46.0075 31.7599C46.0075 31.7959 45.9783 31.825 45.9424 31.825H45.418C45.382 31.825 45.3529 31.7959 45.3529 31.7599C45.3529 31.724 45.3238 31.6949 45.2879 31.6949H45.0252C44.9893 31.6949 44.9601 31.724 44.9601 31.7599C44.9601 31.7959 44.931 31.825 44.8951 31.825H44.3706C44.3347 31.825 44.3056 31.7959 44.3056 31.7599C44.3056 31.724 44.2765 31.6949 44.2405 31.6949H43.9779C43.9419 31.6949 43.9128 31.724 43.9128 31.7599C43.9128 31.7959 43.8837 31.825 43.8477 31.825H43.3233C43.2874 31.825 43.2582 31.7959 43.2582 31.7599C43.2582 31.724 43.2291 31.6949 43.1932 31.6949H42.9305C42.8946 31.6949 42.8655 31.724 42.8655 31.7599C42.8655 31.7959 42.8363 31.825 42.8004 31.825H42.276C42.24 31.825 42.2109 31.7959 42.2109 31.7599C42.2109 31.724 42.1818 31.6949 42.1458 31.6949H41.9491C41.8045 31.6949 41.6873 31.5777 41.6873 31.4331V31.3699Z"
        fill="#DADFE6" />
    <path
        d="M60.8 32.605C60.1855 32.605 59.6873 32.1103 59.6873 31.5C59.6873 30.8897 60.1855 30.395 60.8 30.395C61.4145 30.395 61.9127 30.8897 61.9127 31.5C61.9127 32.1103 61.4145 32.605 60.8 32.605Z"
        fill="#DADFE6" />
    <path
        d="M54.2545 31.045H52.2909C52.0379 31.045 51.8327 31.2487 51.8327 31.5C51.8327 31.7513 52.0379 31.955 52.2909 31.955H54.2545C54.5076 31.955 54.7127 31.7513 54.7127 31.5C54.7127 31.2487 54.5076 31.045 54.2545 31.045Z"
        fill="#DADFE6" />
    <path fill-rule="evenodd" clip-rule="evenodd"
        d="M14 27C14 25.8954 14.8954 25 16 25H84C85.1046 25 86 25.8954 86 27V36C86 37.1046 85.1046 38 84 38H16C14.8954 38 14 37.1046 14 36V27ZM31.6636 30.2C30.9457 30.2 30.3636 30.782 30.3636 31.5C30.3636 32.218 30.9457 32.8 31.6636 32.8H35.6091C36.3271 32.8 36.9091 32.218 36.9091 31.5C36.9091 30.782 36.3271 30.2 35.6091 30.2H31.6636ZM42.1364 32.8C41.4184 32.8 40.8364 32.218 40.8364 31.5C40.8364 30.782 41.4184 30.2 42.1364 30.2H46.0818C46.7998 30.2 47.3818 30.782 47.3818 31.5C47.3818 32.218 46.7998 32.8 46.0818 32.8H42.1364ZM59.1636 31.5C59.1636 30.6025 59.8963 29.875 60.8 29.875C61.7037 29.875 62.4364 30.6025 62.4364 31.5C62.4364 32.3975 61.7037 33.125 60.8 33.125C59.8963 33.125 59.1636 32.3975 59.1636 31.5ZM51.3091 31.5C51.3091 30.9615 51.7487 30.525 52.2909 30.525H54.2545C54.7968 30.525 55.2364 30.9615 55.2364 31.5C55.2364 32.0385 54.7968 32.475 54.2545 32.475H52.2909C51.7487 32.475 51.3091 32.0385 51.3091 31.5Z"
        fill="#DADFE6" />
    <rect x="66.3638" y="29.9091" width="3.27273" height="3.27273" rx="1.63636" fill="#929AA3" />
    <path fill-rule="evenodd" clip-rule="evenodd"
        d="M67.149 31.5454C67.149 32.0153 67.5299 32.3963 67.9999 32.3963C68.4698 32.3963 68.8508 32.0153 68.8508 31.5454C68.8508 31.0754 68.4698 30.6945 67.9999 30.6945C67.5299 30.6945 67.149 31.0754 67.149 31.5454ZM67.9999 30.5636C67.4576 30.5636 67.0181 31.0031 67.0181 31.5454C67.0181 32.0876 67.4576 32.5272 67.9999 32.5272C68.5421 32.5272 68.9817 32.0876 68.9817 31.5454C68.9817 31.0031 68.5421 30.5636 67.9999 30.5636Z"
        fill="white" />
    <g filter="url(#filter3_i_988_10640)">
        <rect x="14" y="40" width="72" height="36" rx="2" fill="#B8C0CC" />
    </g>
    <path d="M23 80H27V81C27 81.5523 26.5523 82 26 82H24C23.4477 82 23 81.5523 23 81V80Z" fill="#7E858C" />
    <path d="M73 80H77V81C77 81.5523 76.5523 82 76 82H74C73.4477 82 73 81.5523 73 81V80Z" fill="#7E858C" />

    <g id="diskABCD">
        <rect x="76" y="42" width="8" height="32" rx="1" fill="white" />
        <rect x="78" y="71" width="4" height="1" fill="#DADFE6" />
        <rect x="78" y="68" width="4" height="1" fill="#DADFE6" />
        <rect x="78" y="65" width="4" height="1" fill="#DADFE6" />
        <rect x="78" y="62" width="4" height="1" fill="#DADFE6" />
        <rect x="78" y="59" width="4" height="1" fill="#DADFE6" />
        <rect x="78" y="56" width="4" height="1" fill="#DADFE6" />
        <rect x="78" y="53" width="4" height="1" fill="#DADFE6" />
        <rect x="78" y="50" width="4" height="1" fill="#DADFE6" />
        <rect x="78" y="47" width="4" height="1" fill="#DADFE6" />
        <rect x="78" y="44" width="4" height="1" fill="#DADFE6" />
    </g>
    <g name="disk1">
        <rect x="16" y="42" width="8" height="32" rx="1" fill="white" />
        <rect x="18" y="62" width="4" height="10" rx="1" fill="#DADFE6" />
    </g>
    <g name="disk2">
        <rect x="26" y="42" width="8" height="32" rx="1" fill="white" />
        <rect x="28" y="62" width="4" height="10" rx="1" fill="#DADFE6" />
    </g>
    <g name="disk3">
        <rect x="36" y="42" width="8" height="32" rx="1" fill="white" />
        <rect x="38" y="62" width="4" height="10" rx="1" fill="#DADFE6" />
    </g>
    <g name="disk4">
        <rect x="46" y="42" width="8" height="32" rx="1" fill="white" />
        <rect x="48" y="62" width="4" height="10" rx="1" fill="#DADFE6" />
    </g>
    <g name="disk5">
        <rect x="56" y="42" width="8" height="32" rx="1" fill="white" />
        <rect x="58" y="62" width="4" height="10" rx="1" fill="#DADFE6" />
    </g>
    <g name="disk6">
        <rect x="66" y="42" width="8" height="32" rx="1" fill="white" />
        <rect x="68" y="62" width="4" height="10" rx="1" fill="#DADFE6" />
    </g>

    <g opacity="0.8">
        <g opacity="0.4" filter="url(#filter4_f_988_10640)">
            <path
                d="M124.811 74.2971C125.569 73.4706 126.638 73 127.76 73H344.24C345.362 73 346.431 73.4706 347.189 74.2971L350.856 78.2971C353.207 80.8627 351.387 85 347.907 85H124.093C120.613 85 118.793 80.8627 121.144 78.2971L124.811 74.2971Z"
                fill="#6C7480" />
        </g>
        <g opacity="0.4" filter="url(#filter5_f_988_10640)">
            <path
                d="M123.828 78.1716C124.579 77.4214 125.596 77 126.657 77H344.552C345.488 77 346.394 77.3281 347.113 77.9271L347.756 78.4636C349.193 79.6611 348.346 82 346.476 82H124.828C123.047 82 122.154 79.8457 123.414 78.5858L123.828 78.1716Z"
                fill="#6C7480" />
        </g>
    </g>
    <g filter="url(#filter6_iiii_988_10640)">
        <rect x="122" width="228" height="80" rx="8" fill="url(#paint1_linear_988_10640)" />
    </g>
    <g filter="url(#filter7_i_988_10640)">
        <rect x="130" y="8" width="124" height="64" rx="4" fill="#B8C0CC" />
    </g>
    <rect x="130.5" y="8.5" width="123" height="63" rx="3.5" stroke="#CFD8E5" />
    <g filter="url(#filter8_i_988_10640)">
        <rect x="258" y="8" width="84" height="64" rx="4" fill="#B8C0CC" />
    </g>
    <rect x="258.5" y="8.5" width="83" height="63" rx="3.5" stroke="#CFD8E5" />

    <!-- A -->
    <g name="diskA">
        <rect x="262" y="12" width="16" height="56" rx="3" fill="white" />
        <path
            d="M270.211 54.6055L267.662 62H266.121L269.332 53.4688H270.316L270.211 54.6055ZM272.344 62L269.789 54.6055L269.678 53.4688H270.668L273.891 62H272.344ZM272.221 58.8359V60.002H267.58V58.8359H272.221Z"
            fill="#909599" />
        <circle name="colorA" cx="270" cy="20" r="2" fill="#28C322" />
        <g opacity="0.5" filter="url(#filterA)">
            <circle name="colorA" cx="270" cy="20" r="2" fill="#28C322" />
        </g>
    </g>
    <!-- B -->
    <g name="diskB">
        <rect x="282" y="12" width="16" height="56" rx="3" fill="white" />
        <path
            d="M290.275 58.1445H288.102L288.09 57.0723H289.988C290.309 57.0723 290.58 57.0254 290.803 56.9316C291.029 56.834 291.201 56.6953 291.318 56.5156C291.436 56.332 291.494 56.1113 291.494 55.8535C291.494 55.5684 291.439 55.3359 291.33 55.1562C291.221 54.9766 291.053 54.8457 290.826 54.7637C290.604 54.6816 290.318 54.6406 289.971 54.6406H288.547V62H287.076V53.4688H289.971C290.439 53.4688 290.857 53.5137 291.225 53.6035C291.596 53.6934 291.91 53.834 292.168 54.0254C292.43 54.2129 292.627 54.4512 292.76 54.7402C292.896 55.0293 292.965 55.373 292.965 55.7715C292.965 56.123 292.881 56.4453 292.713 56.7383C292.545 57.0273 292.297 57.2637 291.969 57.4473C291.641 57.6309 291.232 57.7402 290.744 57.7754L290.275 58.1445ZM290.211 62H287.639L288.301 60.834H290.211C290.543 60.834 290.82 60.7793 291.043 60.6699C291.266 60.5566 291.432 60.4023 291.541 60.207C291.654 60.0078 291.711 59.7754 291.711 59.5098C291.711 59.2324 291.662 58.9922 291.564 58.7891C291.467 58.582 291.312 58.4238 291.102 58.3145C290.891 58.2012 290.615 58.1445 290.275 58.1445H288.623L288.635 57.0723H290.785L291.119 57.4766C291.588 57.4922 291.973 57.5957 292.273 57.7871C292.578 57.9785 292.805 58.2266 292.953 58.5312C293.102 58.8359 293.176 59.1641 293.176 59.5156C293.176 60.0586 293.057 60.5137 292.818 60.8809C292.584 61.248 292.246 61.5273 291.805 61.7188C291.363 61.9062 290.832 62 290.211 62Z"
            fill="#909599" />
        <circle name="colorB" cx="290" cy="20" r="2" fill="#28C322" />
        <g opacity="0.5" filter="url(#filterB)">
            <circle name="colorB" cx="290" cy="20" r="2" fill="#28C322" />
        </g>
    </g>
    <!-- C -->
    <g name="diskC">
        <rect x="302" y="12" width="16" height="56" rx="3" fill="white" />
        <path
            d="M311.986 59.2227H313.451C313.404 59.7812 313.248 60.2793 312.982 60.7168C312.717 61.1504 312.344 61.4922 311.863 61.7422C311.383 61.9922 310.799 62.1172 310.111 62.1172C309.584 62.1172 309.109 62.0234 308.688 61.8359C308.266 61.6445 307.904 61.375 307.604 61.0273C307.303 60.6758 307.072 60.252 306.912 59.7559C306.756 59.2598 306.678 58.7051 306.678 58.0918V57.3828C306.678 56.7695 306.758 56.2148 306.918 55.7188C307.082 55.2227 307.316 54.7988 307.621 54.4473C307.926 54.0918 308.291 53.8203 308.717 53.6328C309.146 53.4453 309.629 53.3516 310.164 53.3516C310.844 53.3516 311.418 53.4766 311.887 53.7266C312.355 53.9766 312.719 54.3223 312.977 54.7637C313.238 55.2051 313.398 55.7109 313.457 56.2812H311.992C311.953 55.9141 311.867 55.5996 311.734 55.3379C311.605 55.0762 311.414 54.877 311.16 54.7402C310.906 54.5996 310.574 54.5293 310.164 54.5293C309.828 54.5293 309.535 54.5918 309.285 54.7168C309.035 54.8418 308.826 55.0254 308.658 55.2676C308.49 55.5098 308.363 55.8086 308.277 56.1641C308.195 56.5156 308.154 56.918 308.154 57.3711V58.0918C308.154 58.5215 308.191 58.9121 308.266 59.2637C308.344 59.6113 308.461 59.9102 308.617 60.1602C308.777 60.4102 308.98 60.6035 309.227 60.7402C309.473 60.877 309.768 60.9453 310.111 60.9453C310.529 60.9453 310.867 60.8789 311.125 60.7461C311.387 60.6133 311.584 60.4199 311.717 60.166C311.854 59.9082 311.943 59.5938 311.986 59.2227Z"
            fill="#909599" />
        <circle name="colorC" cx="310" cy="20" r="2" fill="#C0C6CC" />
        <g opacity="0.5" filter="url(#filterC)">
            <circle name="colorC" cx="310" cy="20" r="2" fill="#28C322" />
        </g>
    </g>
    <!-- D -->
    <g name="diskD">
        <rect x="322" y="12" width="16" height="56" rx="3" fill="white" />
        <path
            d="M329.426 62H327.604L327.615 60.834H329.426C329.953 60.834 330.395 60.7188 330.75 60.4883C331.109 60.2578 331.379 59.9277 331.559 59.498C331.742 59.0684 331.834 58.5566 331.834 57.9629V57.5C331.834 57.0391 331.781 56.6309 331.676 56.2754C331.574 55.9199 331.422 55.6211 331.219 55.3789C331.02 55.1367 330.773 54.9531 330.48 54.8281C330.191 54.7031 329.857 54.6406 329.479 54.6406H327.568V53.4688H329.479C330.045 53.4688 330.562 53.5645 331.031 53.7559C331.5 53.9434 331.904 54.2148 332.244 54.5703C332.588 54.9258 332.852 55.3516 333.035 55.8477C333.219 56.3438 333.311 56.8984 333.311 57.5117V57.9629C333.311 58.5762 333.219 59.1309 333.035 59.627C332.852 60.123 332.588 60.5488 332.244 60.9043C331.9 61.2559 331.49 61.5273 331.014 61.7188C330.541 61.9062 330.012 62 329.426 62ZM328.418 53.4688V62H326.947V53.4688H328.418Z"
            fill="#909599" />
        <circle name="colorD" cx="330" cy="20" r="2" fill="#C0C6CC" />
        <g opacity="0.5" filter="url(#filterD)">
            <circle name="colorD" cx="330" cy="20" r="2" fill="#C0C6CC" />
        </g>
    </g>

    <!-- 1 -->
    <g name="disk1">
        <rect x="133" y="12" width="16" height="56" rx="3" fill="white" />
        <path d="M142.312 53.4395V62H140.9V55.1152L138.809 55.8242V54.6582L142.143 53.4395H142.312Z" fill="#909599" />
        <g opacity="0.5" filter="url(#filter1)">
            <circle name="color1" cx="141" cy="20" r="2" fill="#28C322" />
        </g>
        <circle name="color1" cx="141" cy="20" r="2" fill="#28C322" />
        <rect x="137" y="28" width="8" height="1" fill="#DADFE5" />
        <rect x="137" y="31" width="8" height="1" fill="#DADFE5" />
        <rect x="137" y="34" width="8" height="1" fill="#DADFE5" />
    </g>
    <!-- 2 -->
    <g name="disk2">
        <rect x="153" y="12" width="16" height="56" rx="3" fill="white" />
        <path
            d="M163.953 60.875V62H158.234V61.0332L161.012 58.0039C161.316 57.6602 161.557 57.3633 161.732 57.1133C161.908 56.8633 162.031 56.6387 162.102 56.4395C162.176 56.2363 162.213 56.0391 162.213 55.8477C162.213 55.5781 162.162 55.3418 162.061 55.1387C161.963 54.9316 161.818 54.7695 161.627 54.6523C161.436 54.5312 161.203 54.4707 160.93 54.4707C160.613 54.4707 160.348 54.5391 160.133 54.6758C159.918 54.8125 159.756 55.002 159.646 55.2441C159.537 55.4824 159.482 55.7559 159.482 56.0645H158.07C158.07 55.5684 158.184 55.1152 158.41 54.7051C158.637 54.291 158.965 53.9629 159.395 53.7207C159.824 53.4746 160.342 53.3516 160.947 53.3516C161.518 53.3516 162.002 53.4473 162.4 53.6387C162.799 53.8301 163.102 54.1016 163.309 54.4531C163.52 54.8047 163.625 55.2207 163.625 55.7012C163.625 55.9668 163.582 56.2305 163.496 56.4922C163.41 56.7539 163.287 57.0156 163.127 57.2773C162.971 57.5352 162.785 57.7949 162.57 58.0566C162.355 58.3145 162.119 58.5762 161.861 58.8418L160.016 60.875H163.953Z"
            fill="#909599" />
        <g opacity="0.5" filter="url(#filter2)">
            <circle name="color2" cx="161" cy="20" r="2" fill="#28C322" />
        </g>
        <circle name="color2" cx="161" cy="20" r="2" fill="#28C322" />
        <rect x="157" y="28" width="8" height="1" fill="#DADFE5" />
        <rect x="157" y="31" width="8" height="1" fill="#DADFE5" />
        <rect x="157" y="34" width="8" height="1" fill="#DADFE5" />
    </g>
    <!-- 3 -->
    <g name="disk3">
        <rect x="174" y="12" width="16" height="56" rx="3" fill="white" />
        <path
            d="M180.893 57.0957H181.736C182.064 57.0957 182.336 57.0391 182.551 56.9258C182.77 56.8125 182.932 56.6562 183.037 56.457C183.143 56.2578 183.195 56.0293 183.195 55.7715C183.195 55.502 183.146 55.2715 183.049 55.0801C182.955 54.8848 182.811 54.7344 182.615 54.6289C182.424 54.5234 182.18 54.4707 181.883 54.4707C181.633 54.4707 181.406 54.5215 181.203 54.623C181.004 54.7207 180.846 54.8613 180.729 55.0449C180.611 55.2246 180.553 55.4395 180.553 55.6895H179.135C179.135 55.2363 179.254 54.834 179.492 54.4824C179.73 54.1309 180.055 53.8555 180.465 53.6562C180.879 53.4531 181.344 53.3516 181.859 53.3516C182.41 53.3516 182.891 53.4434 183.301 53.627C183.715 53.8066 184.037 54.0762 184.268 54.4355C184.498 54.7949 184.613 55.2402 184.613 55.7715C184.613 56.0137 184.557 56.2598 184.443 56.5098C184.33 56.7598 184.162 56.9883 183.939 57.1953C183.717 57.3984 183.439 57.5645 183.107 57.6934C182.775 57.8184 182.391 57.8809 181.953 57.8809H180.893V57.0957ZM180.893 58.1973V57.4238H181.953C182.453 57.4238 182.879 57.4824 183.23 57.5996C183.586 57.7168 183.875 57.8789 184.098 58.0859C184.32 58.2891 184.482 58.5215 184.584 58.7832C184.689 59.0449 184.742 59.3223 184.742 59.6152C184.742 60.0137 184.67 60.3691 184.525 60.6816C184.385 60.9902 184.184 61.252 183.922 61.4668C183.66 61.6816 183.354 61.8438 183.002 61.9531C182.654 62.0625 182.275 62.1172 181.865 62.1172C181.498 62.1172 181.146 62.0664 180.811 61.9648C180.475 61.8633 180.174 61.7129 179.908 61.5137C179.643 61.3105 179.432 61.0586 179.275 60.7578C179.123 60.4531 179.047 60.1016 179.047 59.7031H180.459C180.459 59.957 180.518 60.1816 180.635 60.377C180.756 60.5684 180.924 60.7188 181.139 60.8281C181.357 60.9375 181.607 60.9922 181.889 60.9922C182.186 60.9922 182.441 60.9395 182.656 60.834C182.871 60.7285 183.035 60.5723 183.148 60.3652C183.266 60.1582 183.324 59.9082 183.324 59.6152C183.324 59.2832 183.26 59.0137 183.131 58.8066C183.002 58.5996 182.818 58.4473 182.58 58.3496C182.342 58.248 182.061 58.1973 181.736 58.1973H180.893Z"
            fill="#909599" />
        <g opacity="0.5" filter="url(#filter3)">
            <circle name="color3" cx="182" cy="20" r="2" fill="#F26224" />
        </g>
        <circle name="color3" cx="182" cy="20" r="2" fill="#F26224" />
        <rect x="178" y="28" width="8" height="1" fill="#DADFE5" />
        <rect x="178" y="31" width="8" height="1" fill="#DADFE5" />
        <rect x="178" y="34" width="8" height="1" fill="#DADFE5" />
    </g>
    <!-- 4 -->
    <g name="disk4">
        <rect x="194" y="12" width="16" height="56" rx="3" fill="white" />
        <path
            d="M205.111 58.959V60.084H198.959L198.912 59.2344L202.592 53.4688H203.723L202.498 55.5664L200.383 58.959H205.111ZM204.045 53.4688V62H202.633V53.4688H204.045Z"
            fill="#909599" />
        <g opacity="0.5" filter="url(#filter4)">
            <circle name="color4" cx="202" cy="20" r="2" fill="#F26224" />
        </g>
        <circle name="color4" cx="202" cy="20" r="2" fill="#C0C6CC" />
        <rect x="198" y="28" width="8" height="1" fill="#DADFE5" />
        <rect x="198" y="31" width="8" height="1" fill="#DADFE5" />
        <rect x="198" y="34" width="8" height="1" fill="#DADFE5" />
    </g>
    <!-- 5 -->
    <g name="disk5">
        <rect x="214" y="12" width="16" height="56" rx="3" fill="white" />
        <path
            d="M220.717 58.0332L219.592 57.7578L220.055 53.4688H224.654V54.6641H221.227L220.992 56.7559C221.125 56.6777 221.309 56.6016 221.543 56.5273C221.777 56.4492 222.045 56.4102 222.346 56.4102C222.748 56.4102 223.107 56.4766 223.424 56.6094C223.744 56.7383 224.016 56.9277 224.238 57.1777C224.461 57.4238 224.631 57.7246 224.748 58.0801C224.865 58.4316 224.924 58.8281 224.924 59.2695C224.924 59.6641 224.865 60.0332 224.748 60.377C224.635 60.7207 224.463 61.0234 224.232 61.2852C224.002 61.5469 223.711 61.752 223.359 61.9004C223.012 62.0449 222.6 62.1172 222.123 62.1172C221.768 62.1172 221.426 62.0664 221.098 61.9648C220.773 61.8594 220.482 61.7051 220.225 61.502C219.967 61.2949 219.76 61.041 219.604 60.7402C219.447 60.4355 219.357 60.0859 219.334 59.6914H220.717C220.752 59.9688 220.828 60.2051 220.945 60.4004C221.066 60.5918 221.227 60.7383 221.426 60.8398C221.625 60.9414 221.855 60.9922 222.117 60.9922C222.355 60.9922 222.561 60.9512 222.732 60.8691C222.904 60.7832 223.047 60.6621 223.16 60.5059C223.277 60.3457 223.363 60.1582 223.418 59.9434C223.477 59.7285 223.506 59.4902 223.506 59.2285C223.506 58.9785 223.473 58.75 223.406 58.543C223.344 58.3359 223.248 58.1562 223.119 58.0039C222.994 57.8516 222.836 57.7344 222.645 57.6523C222.453 57.5664 222.232 57.5234 221.982 57.5234C221.646 57.5234 221.389 57.5723 221.209 57.6699C221.033 57.7676 220.869 57.8887 220.717 58.0332Z"
            fill="#909599" />
        <g opacity="0.5" filter="url(#filter5)">
            <circle name="color5" cx="222" cy="20" r="2" fill="#F26224" />
        </g>
        <circle name="color5" cx="222" cy="20" r="2" fill="#C0C6CC" />
        <rect x="218" y="28" width="8" height="1" fill="#DADFE5" />
        <rect x="218" y="31" width="8" height="1" fill="#DADFE5" />
        <rect x="218" y="34" width="8" height="1" fill="#DADFE5" />
    </g>
    <!-- 6 -->
    <g name="disk6">
        <rect x="234" y="12" width="16" height="56" rx="3" fill="white" />
        <path
            d="M243.559 53.416H243.734V54.5703H243.635C243.131 54.5703 242.695 54.6484 242.328 54.8047C241.965 54.9609 241.666 55.1758 241.432 55.4492C241.197 55.7227 241.021 56.043 240.904 56.4102C240.791 56.7734 240.734 57.1602 240.734 57.5703V58.9121C240.734 59.252 240.771 59.5527 240.846 59.8145C240.92 60.0723 241.023 60.2891 241.156 60.4648C241.293 60.6367 241.449 60.7676 241.625 60.8574C241.801 60.9473 241.99 60.9922 242.193 60.9922C242.404 60.9922 242.596 60.9492 242.768 60.8633C242.939 60.7734 243.086 60.6504 243.207 60.4941C243.328 60.3379 243.42 60.1523 243.482 59.9375C243.545 59.7227 243.576 59.4883 243.576 59.2344C243.576 58.9922 243.545 58.7656 243.482 58.5547C243.424 58.3398 243.336 58.1523 243.219 57.9922C243.102 57.8281 242.955 57.7012 242.779 57.6113C242.607 57.5176 242.408 57.4707 242.182 57.4707C241.9 57.4707 241.645 57.5371 241.414 57.6699C241.188 57.8027 241.004 57.9766 240.863 58.1914C240.727 58.4023 240.652 58.627 240.641 58.8652L240.102 58.6895C240.133 58.3262 240.213 58 240.342 57.7109C240.475 57.4219 240.648 57.1758 240.863 56.9727C241.078 56.7695 241.326 56.6152 241.607 56.5098C241.893 56.4004 242.205 56.3457 242.545 56.3457C242.959 56.3457 243.318 56.4238 243.623 56.5801C243.928 56.7363 244.18 56.9492 244.379 57.2188C244.582 57.4844 244.732 57.7891 244.83 58.1328C244.932 58.4727 244.982 58.8281 244.982 59.1992C244.982 59.6094 244.92 59.9922 244.795 60.3477C244.67 60.6992 244.486 61.0078 244.244 61.2734C244.006 61.5391 243.715 61.7461 243.371 61.8945C243.031 62.043 242.645 62.1172 242.211 62.1172C241.754 62.1172 241.346 62.0293 240.986 61.8535C240.631 61.6777 240.328 61.4355 240.078 61.127C239.832 60.8184 239.645 60.4629 239.516 60.0605C239.387 59.6582 239.322 59.2324 239.322 58.7832V58.1973C239.322 57.5488 239.404 56.9375 239.568 56.3633C239.732 55.7852 239.984 55.2754 240.324 54.834C240.668 54.3926 241.107 54.0469 241.643 53.7969C242.178 53.543 242.816 53.416 243.559 53.416Z"
            fill="#909599" />
        <g opacity="0.5" filter="url(#filter6)">
            <circle name="color6" cx="242" cy="20" r="2" fill="#F26224" />
        </g>
        <circle name="color6" cx="242" cy="20" r="2" fill="#F26224" />
        <rect x="238" y="28" width="8" height="1" fill="#DADFE5" />
        <rect x="238" y="31" width="8" height="1" fill="#DADFE5" />
        <rect x="238" y="34" width="8" height="1" fill="#DADFE5" />
    </g>

    <defs>
        <filter id="filter0_f_988_10640" x="4" y="69" width="92" height="22" filterUnits="userSpaceOnUse"
            color-interpolation-filters="sRGB">
            <feFlood flood-opacity="0" result="BackgroundImageFix" />
            <feBlend mode="normal" in="SourceGraphic" in2="BackgroundImageFix" result="shape" />
            <feGaussianBlur stdDeviation="3" result="effect1_foregroundBlur_988_10640" />
        </filter>
        <filter id="filter1_f_988_10640" x="13" y="76" width="74" height="10" filterUnits="userSpaceOnUse"
            color-interpolation-filters="sRGB">
            <feFlood flood-opacity="0" result="BackgroundImageFix" />
            <feBlend mode="normal" in="SourceGraphic" in2="BackgroundImageFix" result="shape" />
            <feGaussianBlur stdDeviation="1.5" result="effect1_foregroundBlur_988_10640" />
        </filter>
        <filter id="filter2_iiii_988_10640" x="10" y="-2" width="80" height="84" filterUnits="userSpaceOnUse"
            color-interpolation-filters="sRGB">
            <feFlood flood-opacity="0" result="BackgroundImageFix" />
            <feBlend mode="normal" in="SourceGraphic" in2="BackgroundImageFix" result="shape" />
            <feColorMatrix in="SourceAlpha" type="matrix" values="0 0 0 0 0 0 0 0 0 0 0 0 0 0 0 0 0 0 127 0"
                result="hardAlpha" />
            <feOffset dy="2" />
            <feGaussianBlur stdDeviation="2" />
            <feComposite in2="hardAlpha" operator="arithmetic" k2="-1" k3="1" />
            <feColorMatrix type="matrix" values="0 0 0 0 1 0 0 0 0 1 0 0 0 0 1 0 0 0 0.15 0" />
            <feBlend mode="normal" in2="shape" result="effect1_innerShadow_988_10640" />
            <feColorMatrix in="SourceAlpha" type="matrix" values="0 0 0 0 0 0 0 0 0 0 0 0 0 0 0 0 0 0 127 0"
                result="hardAlpha" />
            <feOffset dy="1" />
            <feGaussianBlur stdDeviation="1" />
            <feComposite in2="hardAlpha" operator="arithmetic" k2="-1" k3="1" />
            <feColorMatrix type="matrix" values="0 0 0 0 1 0 0 0 0 1 0 0 0 0 1 0 0 0 0.2 0" />
            <feBlend mode="normal" in2="effect1_innerShadow_988_10640" result="effect2_innerShadow_988_10640" />
            <feColorMatrix in="SourceAlpha" type="matrix" values="0 0 0 0 0 0 0 0 0 0 0 0 0 0 0 0 0 0 127 0"
                result="hardAlpha" />
            <feOffset dy="-2" />
            <feGaussianBlur stdDeviation="2" />
            <feComposite in2="hardAlpha" operator="arithmetic" k2="-1" k3="1" />
            <feColorMatrix type="matrix" values="0 0 0 0 0.358333 0 0 0 0 0.375694 0 0 0 0 0.4 0 0 0 0.3 0" />
            <feBlend mode="normal" in2="effect2_innerShadow_988_10640" result="effect3_innerShadow_988_10640" />
            <feColorMatrix in="SourceAlpha" type="matrix" values="0 0 0 0 0 0 0 0 0 0 0 0 0 0 0 0 0 0 127 0"
                result="hardAlpha" />
            <feOffset dy="-1" />
            <feGaussianBlur stdDeviation="0.5" />
            <feComposite in2="hardAlpha" operator="arithmetic" k2="-1" k3="1" />
            <feColorMatrix type="matrix" values="0 0 0 0 1 0 0 0 0 1 0 0 0 0 1 0 0 0 0.05 0" />
            <feBlend mode="normal" in2="effect3_innerShadow_988_10640" result="effect4_innerShadow_988_10640" />
        </filter>
        <filter id="filter3_i_988_10640" x="14" y="40" width="72" height="37" filterUnits="userSpaceOnUse"
            color-interpolation-filters="sRGB">
            <feFlood flood-opacity="0" result="BackgroundImageFix" />
            <feBlend mode="normal" in="SourceGraphic" in2="BackgroundImageFix" result="shape" />
            <feColorMatrix in="SourceAlpha" type="matrix" values="0 0 0 0 0 0 0 0 0 0 0 0 0 0 0 0 0 0 127 0"
                result="hardAlpha" />
            <feOffset dy="1" />
            <feGaussianBlur stdDeviation="1" />
            <feComposite in2="hardAlpha" operator="arithmetic" k2="-1" k3="1" />
            <feColorMatrix type="matrix" values="0 0 0 0 0.537255 0 0 0 0 0.564706 0 0 0 0 0.6 0 0 0 0.3 0" />
            <feBlend mode="normal" in2="shape" result="effect1_innerShadow_988_10640" />
        </filter>
        <filter id="filter4_f_988_10640" x="112.085" y="65" width="247.83" height="28" filterUnits="userSpaceOnUse"
            color-interpolation-filters="sRGB">
            <feFlood flood-opacity="0" result="BackgroundImageFix" />
            <feBlend mode="normal" in="SourceGraphic" in2="BackgroundImageFix" result="shape" />
            <feGaussianBlur stdDeviation="4" result="effect1_foregroundBlur_988_10640" />
        </filter>
        <filter id="filter5_f_988_10640" x="118.824" y="73" width="233.656" height="13" filterUnits="userSpaceOnUse"
            color-interpolation-filters="sRGB">
            <feFlood flood-opacity="0" result="BackgroundImageFix" />
            <feBlend mode="normal" in="SourceGraphic" in2="BackgroundImageFix" result="shape" />
            <feGaussianBlur stdDeviation="2" result="effect1_foregroundBlur_988_10640" />
        </filter>
        <filter id="filter6_iiii_988_10640" x="122" y="-2" width="228" height="84" filterUnits="userSpaceOnUse"
            color-interpolation-filters="sRGB">
            <feFlood flood-opacity="0" result="BackgroundImageFix" />
            <feBlend mode="normal" in="SourceGraphic" in2="BackgroundImageFix" result="shape" />
            <feColorMatrix in="SourceAlpha" type="matrix" values="0 0 0 0 0 0 0 0 0 0 0 0 0 0 0 0 0 0 127 0"
                result="hardAlpha" />
            <feOffset dy="2" />
            <feGaussianBlur stdDeviation="2" />
            <feComposite in2="hardAlpha" operator="arithmetic" k2="-1" k3="1" />
            <feColorMatrix type="matrix" values="0 0 0 0 1 0 0 0 0 1 0 0 0 0 1 0 0 0 0.15 0" />
            <feBlend mode="normal" in2="shape" result="effect1_innerShadow_988_10640" />
            <feColorMatrix in="SourceAlpha" type="matrix" values="0 0 0 0 0 0 0 0 0 0 0 0 0 0 0 0 0 0 127 0"
                result="hardAlpha" />
            <feOffset dy="1" />
            <feGaussianBlur stdDeviation="1" />
            <feComposite in2="hardAlpha" operator="arithmetic" k2="-1" k3="1" />
            <feColorMatrix type="matrix" values="0 0 0 0 1 0 0 0 0 1 0 0 0 0 1 0 0 0 0.2 0" />
            <feBlend mode="normal" in2="effect1_innerShadow_988_10640" result="effect2_innerShadow_988_10640" />
            <feColorMatrix in="SourceAlpha" type="matrix" values="0 0 0 0 0 0 0 0 0 0 0 0 0 0 0 0 0 0 127 0"
                result="hardAlpha" />
            <feOffset dy="-2" />
            <feGaussianBlur stdDeviation="2" />
            <feComposite in2="hardAlpha" operator="arithmetic" k2="-1" k3="1" />
            <feColorMatrix type="matrix" values="0 0 0 0 0.358333 0 0 0 0 0.375694 0 0 0 0 0.4 0 0 0 0.3 0" />
            <feBlend mode="normal" in2="effect2_innerShadow_988_10640" result="effect3_innerShadow_988_10640" />
            <feColorMatrix in="SourceAlpha" type="matrix" values="0 0 0 0 0 0 0 0 0 0 0 0 0 0 0 0 0 0 127 0"
                result="hardAlpha" />
            <feOffset dy="-1" />
            <feGaussianBlur stdDeviation="0.5" />
            <feComposite in2="hardAlpha" operator="arithmetic" k2="-1" k3="1" />
            <feColorMatrix type="matrix" values="0 0 0 0 1 0 0 0 0 1 0 0 0 0 1 0 0 0 0.05 0" />
            <feBlend mode="normal" in2="effect3_innerShadow_988_10640" result="effect4_innerShadow_988_10640" />
        </filter>
        <filter id="filter7_i_988_10640" x="130" y="8" width="124" height="65" filterUnits="userSpaceOnUse"
            color-interpolation-filters="sRGB">
            <feFlood flood-opacity="0" result="BackgroundImageFix" />
            <feBlend mode="normal" in="SourceGraphic" in2="BackgroundImageFix" result="shape" />
            <feColorMatrix in="SourceAlpha" type="matrix" values="0 0 0 0 0 0 0 0 0 0 0 0 0 0 0 0 0 0 127 0"
                result="hardAlpha" />
            <feOffset dy="1" />
            <feGaussianBlur stdDeviation="1" />
            <feComposite in2="hardAlpha" operator="arithmetic" k2="-1" k3="1" />
            <feColorMatrix type="matrix" values="0 0 0 0 0.537255 0 0 0 0 0.564706 0 0 0 0 0.6 0 0 0 0.3 0" />
            <feBlend mode="normal" in2="shape" result="effect1_innerShadow_988_10640" />
        </filter>
        <filter id="filter8_i_988_10640" x="258" y="8" width="84" height="65" filterUnits="userSpaceOnUse"
            color-interpolation-filters="sRGB">
            <feFlood flood-opacity="0" result="BackgroundImageFix" />
            <feBlend mode="normal" in="SourceGraphic" in2="BackgroundImageFix" result="shape" />
            <feColorMatrix in="SourceAlpha" type="matrix" values="0 0 0 0 0 0 0 0 0 0 0 0 0 0 0 0 0 0 127 0"
                result="hardAlpha" />
            <feOffset dy="1" />
            <feGaussianBlur stdDeviation="1" />
            <feComposite in2="hardAlpha" operator="arithmetic" k2="-1" k3="1" />
            <feColorMatrix type="matrix" values="0 0 0 0 0.537255 0 0 0 0 0.564706 0 0 0 0 0.6 0 0 0 0.3 0" />
            <feBlend mode="normal" in2="shape" result="effect1_innerShadow_988_10640" />
        </filter>
        <filter id="filterA" x="264" y="14" width="12" height="12" filterUnits="userSpaceOnUse"
            color-interpolation-filters="sRGB">
            <feFlood flood-opacity="0" result="BackgroundImageFix" />
            <feBlend mode="normal" in="SourceGraphic" in2="BackgroundImageFix" result="shape" />
            <feGaussianBlur stdDeviation="2" result="effect1_foregroundBlur_988_10640" />
        </filter>
        <filter id="filterB" x="284" y="14" width="12" height="12" filterUnits="userSpaceOnUse"
            color-interpolation-filters="sRGB">
            <feFlood flood-opacity="0" result="BackgroundImageFix" />
            <feBlend mode="normal" in="SourceGraphic" in2="BackgroundImageFix" result="shape" />
            <feGaussianBlur stdDeviation="2" result="effect1_foregroundBlur_988_10640" />
        </filter>
        <filter id="filterC" x="304" y="14" width="12" height="12" filterUnits="userSpaceOnUse"
            color-interpolation-filters="sRGB">
            <feFlood flood-opacity="0" result="BackgroundImageFix" />
            <feBlend mode="normal" in="SourceGraphic" in2="BackgroundImageFix" result="shape" />
            <feGaussianBlur stdDeviation="2" result="effect1_foregroundBlur_988_10640" />
        </filter>
        <filter id="filterD" x="324" y="14" width="12" height="12" filterUnits="userSpaceOnUse"
            color-interpolation-filters="sRGB">
            <feFlood flood-opacity="0" result="BackgroundImageFix" />
            <feBlend mode="normal" in="SourceGraphic" in2="BackgroundImageFix" result="shape" />
            <feGaussianBlur stdDeviation="2" result="effect1_foregroundBlur_988_10640" />
        </filter>
        <filter id="filter1" x="135" y="14" width="12" height="12" filterUnits="userSpaceOnUse"
            color-interpolation-filters="sRGB">
            <feFlood flood-opacity="0" result="BackgroundImageFix" />
            <feBlend mode="normal" in="SourceGraphic" in2="BackgroundImageFix" result="shape" />
            <feGaussianBlur stdDeviation="2" result="effect1_foregroundBlur_988_10640" />
        </filter>
        <filter id="filter2" x="155" y="14" width="12" height="12" filterUnits="userSpaceOnUse"
            color-interpolation-filters="sRGB">
            <feFlood flood-opacity="0" result="BackgroundImageFix" />
            <feBlend mode="normal" in="SourceGraphic" in2="BackgroundImageFix" result="shape" />
            <feGaussianBlur stdDeviation="2" result="effect1_foregroundBlur_988_10640" />
        </filter>
        <filter id="filter3" x="176" y="14" width="12" height="12" filterUnits="userSpaceOnUse"
            color-interpolation-filters="sRGB">
            <feFlood flood-opacity="0" result="BackgroundImageFix" />
            <feBlend mode="normal" in="SourceGraphic" in2="BackgroundImageFix" result="shape" />
            <feGaussianBlur stdDeviation="2" result="effect1_foregroundBlur_988_10640" />
        </filter>
        <filter id="filter4" x="196" y="14" width="12" height="12" filterUnits="userSpaceOnUse"
            color-interpolation-filters="sRGB">
            <feFlood flood-opacity="0" result="BackgroundImageFix" />
            <feBlend mode="normal" in="SourceGraphic" in2="BackgroundImageFix" result="shape" />
            <feGaussianBlur stdDeviation="2" result="effect1_foregroundBlur_988_10640" />
        </filter>
        <filter id="filter5" x="216" y="14" width="12" height="12" filterUnits="userSpaceOnUse"
            color-interpolation-filters="sRGB">
            <feFlood flood-opacity="0" result="BackgroundImageFix" />
            <feBlend mode="normal" in="SourceGraphic" in2="BackgroundImageFix" result="shape" />
            <feGaussianBlur stdDeviation="2" result="effect1_foregroundBlur_988_10640" />
        </filter>
        <filter id="filter6" x="236" y="14" width="12" height="12" filterUnits="userSpaceOnUse"
            color-interpolation-filters="sRGB">
            <feFlood flood-opacity="0" result="BackgroundImageFix" />
            <feBlend mode="normal" in="SourceGraphic" in2="BackgroundImageFix" result="shape" />
            <feGaussianBlur stdDeviation="2" result="effect1_foregroundBlur_988_10640" />
        </filter>
        <linearGradient id="paint0_linear_988_10640" x1="39.9516" y1="-1.81024" x2="68.7092" y2="74.6877"
            gradientUnits="userSpaceOnUse">
            <stop stop-color="#ACB4BF" />
            <stop offset="1" stop-color="#899099" />
        </linearGradient>
        <linearGradient id="paint1_linear_988_10640" x1="207.362" y1="-1.81024" x2="218.682" y2="84.0053"
            gradientUnits="userSpaceOnUse">
            <stop stop-color="#ACB4BF" />
            <stop offset="1" stop-color="#949CA6" />
        </linearGradient>
    </defs>
    <!-- HDD -->
    <path
        d="M186.904 91.1367V92.0566H182.287V91.1367H186.904ZM182.463 87.4688V96H181.332V87.4688H182.463ZM187.889 87.4688V96H186.764V87.4688H187.889ZM192.207 96H190.426L190.438 95.0801H192.207C192.816 95.0801 193.324 94.9531 193.73 94.6992C194.137 94.4414 194.441 94.082 194.645 93.6211C194.852 93.1562 194.955 92.6133 194.955 91.9922V91.4707C194.955 90.9824 194.896 90.5488 194.779 90.1699C194.662 89.7871 194.49 89.4648 194.264 89.2031C194.037 88.9375 193.76 88.7363 193.432 88.5996C193.107 88.4629 192.734 88.3945 192.312 88.3945H190.391V87.4688H192.312C192.871 87.4688 193.381 87.5625 193.842 87.75C194.303 87.9336 194.699 88.2012 195.031 88.5527C195.367 88.9004 195.625 89.3223 195.805 89.8184C195.984 90.3105 196.074 90.8652 196.074 91.4824V91.9922C196.074 92.6094 195.984 93.166 195.805 93.6621C195.625 94.1543 195.365 94.5742 195.025 94.9219C194.689 95.2695 194.283 95.5371 193.807 95.7246C193.334 95.9082 192.801 96 192.207 96ZM191.029 87.4688V96H189.898V87.4688H191.029ZM200.082 96H198.301L198.312 95.0801H200.082C200.691 95.0801 201.199 94.9531 201.605 94.6992C202.012 94.4414 202.316 94.082 202.52 93.6211C202.727 93.1562 202.83 92.6133 202.83 91.9922V91.4707C202.83 90.9824 202.771 90.5488 202.654 90.1699C202.537 89.7871 202.365 89.4648 202.139 89.2031C201.912 88.9375 201.635 88.7363 201.307 88.5996C200.982 88.4629 200.609 88.3945 200.188 88.3945H198.266V87.4688H200.188C200.746 87.4688 201.256 87.5625 201.717 87.75C202.178 87.9336 202.574 88.2012 202.906 88.5527C203.242 88.9004 203.5 89.3223 203.68 89.8184C203.859 90.3105 203.949 90.8652 203.949 91.4824V91.9922C203.949 92.6094 203.859 93.166 203.68 93.6621C203.5 94.1543 203.24 94.5742 202.9 94.9219C202.564 95.2695 202.158 95.5371 201.682 95.7246C201.209 95.9082 200.676 96 200.082 96ZM198.904 87.4688V96H197.773V87.4688H198.904Z"
        fill="#909599" />
    <!-- SSD -->
    <path
        d="M294.975 93.8438C294.975 93.6445 294.943 93.4688 294.881 93.3164C294.822 93.1602 294.717 93.0195 294.564 92.8945C294.416 92.7695 294.209 92.6504 293.943 92.5371C293.682 92.4238 293.35 92.3086 292.947 92.1914C292.525 92.0664 292.145 91.9277 291.805 91.7754C291.465 91.6191 291.174 91.4414 290.932 91.2422C290.689 91.043 290.504 90.8145 290.375 90.5566C290.246 90.2988 290.182 90.0039 290.182 89.6719C290.182 89.3398 290.25 89.0332 290.387 88.752C290.523 88.4707 290.719 88.2266 290.973 88.0195C291.23 87.8086 291.537 87.6445 291.893 87.5273C292.248 87.4102 292.645 87.3516 293.082 87.3516C293.723 87.3516 294.266 87.4746 294.711 87.7207C295.16 87.9629 295.502 88.2812 295.736 88.6758C295.971 89.0664 296.088 89.4844 296.088 89.9297H294.963C294.963 89.6094 294.895 89.3262 294.758 89.0801C294.621 88.8301 294.414 88.6348 294.137 88.4941C293.859 88.3496 293.508 88.2773 293.082 88.2773C292.68 88.2773 292.348 88.3379 292.086 88.459C291.824 88.5801 291.629 88.7441 291.5 88.9512C291.375 89.1582 291.312 89.3945 291.312 89.6602C291.312 89.8398 291.35 90.0039 291.424 90.1523C291.502 90.2969 291.621 90.4316 291.781 90.5566C291.945 90.6816 292.152 90.7969 292.402 90.9023C292.656 91.0078 292.959 91.1094 293.311 91.207C293.795 91.3438 294.213 91.4961 294.564 91.6641C294.916 91.832 295.205 92.0215 295.432 92.2324C295.662 92.4395 295.832 92.6758 295.941 92.9414C296.055 93.2031 296.111 93.5 296.111 93.832C296.111 94.1797 296.041 94.4941 295.9 94.7754C295.76 95.0566 295.559 95.2969 295.297 95.4961C295.035 95.6953 294.721 95.8496 294.354 95.959C293.99 96.0645 293.584 96.1172 293.135 96.1172C292.74 96.1172 292.352 96.0625 291.969 95.9531C291.59 95.8438 291.244 95.6797 290.932 95.4609C290.623 95.2422 290.375 94.9727 290.188 94.6523C290.004 94.3281 289.912 93.9531 289.912 93.5273H291.037C291.037 93.8203 291.094 94.0723 291.207 94.2832C291.32 94.4902 291.475 94.6621 291.67 94.7988C291.869 94.9355 292.094 95.0371 292.344 95.1035C292.598 95.166 292.861 95.1973 293.135 95.1973C293.529 95.1973 293.863 95.1426 294.137 95.0332C294.41 94.9238 294.617 94.7676 294.758 94.5645C294.902 94.3613 294.975 94.1211 294.975 93.8438ZM302.1 93.8438C302.1 93.6445 302.068 93.4688 302.006 93.3164C301.947 93.1602 301.842 93.0195 301.689 92.8945C301.541 92.7695 301.334 92.6504 301.068 92.5371C300.807 92.4238 300.475 92.3086 300.072 92.1914C299.65 92.0664 299.27 91.9277 298.93 91.7754C298.59 91.6191 298.299 91.4414 298.057 91.2422C297.814 91.043 297.629 90.8145 297.5 90.5566C297.371 90.2988 297.307 90.0039 297.307 89.6719C297.307 89.3398 297.375 89.0332 297.512 88.752C297.648 88.4707 297.844 88.2266 298.098 88.0195C298.355 87.8086 298.662 87.6445 299.018 87.5273C299.373 87.4102 299.77 87.3516 300.207 87.3516C300.848 87.3516 301.391 87.4746 301.836 87.7207C302.285 87.9629 302.627 88.2812 302.861 88.6758C303.096 89.0664 303.213 89.4844 303.213 89.9297H302.088C302.088 89.6094 302.02 89.3262 301.883 89.0801C301.746 88.8301 301.539 88.6348 301.262 88.4941C300.984 88.3496 300.633 88.2773 300.207 88.2773C299.805 88.2773 299.473 88.3379 299.211 88.459C298.949 88.5801 298.754 88.7441 298.625 88.9512C298.5 89.1582 298.438 89.3945 298.438 89.6602C298.438 89.8398 298.475 90.0039 298.549 90.1523C298.627 90.2969 298.746 90.4316 298.906 90.5566C299.07 90.6816 299.277 90.7969 299.527 90.9023C299.781 91.0078 300.084 91.1094 300.436 91.207C300.92 91.3438 301.338 91.4961 301.689 91.6641C302.041 91.832 302.33 92.0215 302.557 92.2324C302.787 92.4395 302.957 92.6758 303.066 92.9414C303.18 93.2031 303.236 93.5 303.236 93.832C303.236 94.1797 303.166 94.4941 303.025 94.7754C302.885 95.0566 302.684 95.2969 302.422 95.4961C302.16 95.6953 301.846 95.8496 301.479 95.959C301.115 96.0645 300.709 96.1172 300.26 96.1172C299.865 96.1172 299.477 96.0625 299.094 95.9531C298.715 95.8438 298.369 95.6797 298.057 95.4609C297.748 95.2422 297.5 94.9727 297.312 94.6523C297.129 94.3281 297.037 93.9531 297.037 93.5273H298.162C298.162 93.8203 298.219 94.0723 298.332 94.2832C298.445 94.4902 298.6 94.6621 298.795 94.7988C298.994 94.9355 299.219 95.0371 299.469 95.1035C299.723 95.166 299.986 95.1973 300.26 95.1973C300.654 95.1973 300.988 95.1426 301.262 95.0332C301.535 94.9238 301.742 94.7676 301.883 94.5645C302.027 94.3613 302.1 94.1211 302.1 93.8438ZM306.986 96H305.205L305.217 95.0801H306.986C307.596 95.0801 308.104 94.9531 308.51 94.6992C308.916 94.4414 309.221 94.082 309.424 93.6211C309.631 93.1562 309.734 92.6133 309.734 91.9922V91.4707C309.734 90.9824 309.676 90.5488 309.559 90.1699C309.441 89.7871 309.27 89.4648 309.043 89.2031C308.816 88.9375 308.539 88.7363 308.211 88.5996C307.887 88.4629 307.514 88.3945 307.092 88.3945H305.17V87.4688H307.092C307.65 87.4688 308.16 87.5625 308.621 87.75C309.082 87.9336 309.479 88.2012 309.811 88.5527C310.146 88.9004 310.404 89.3223 310.584 89.8184C310.764 90.3105 310.854 90.8652 310.854 91.4824V91.9922C310.854 92.6094 310.764 93.166 310.584 93.6621C310.404 94.1543 310.145 94.5742 309.805 94.9219C309.469 95.2695 309.062 95.5371 308.586 95.7246C308.113 95.9082 307.58 96 306.986 96ZM305.809 87.4688V96H304.678V87.4688H305.809Z"
        fill="#909599" />
</svg>
