<svg width="160" height="160" viewBox="0 0 160 160" fill="none" xmlns="http://www.w3.org/2000/svg">
<path d="M3 144H157C148.46 109.547 117.225 84 80 84C42.775 84 11.5396 109.547 3 144Z" fill="url(#paint0_linear_1186_63436)"/>
<ellipse cx="111" cy="110" rx="12" ry="6" fill="#899099"/>
<ellipse cx="111" cy="111.5" rx="12" ry="6" fill="#E6EBF2"/>
<ellipse cx="41" cy="120" rx="8" ry="4" fill="#899099"/>
<ellipse cx="41" cy="121" rx="8" ry="4" fill="#E6EBF2"/>
<circle cx="80" cy="60" r="40" fill="#E6EBF2"/>
<path d="M75 82H85" stroke="#B7C0CC" stroke-width="4" stroke-linecap="round" stroke-linejoin="round"/>
<path fill-rule="evenodd" clip-rule="evenodd" d="M56.2635 43.0081C56.8115 42.049 58.0332 41.7158 58.9923 42.2639L72.9923 50.2639C73.7797 50.7138 74.1658 51.6372 73.933 52.5137C73.7002 53.3902 72.9069 54.0003 72 54.0003H56C54.8954 54.0003 54 53.1049 54 52.0003C54 50.8958 54.8954 50.0003 56 50.0003H64.4689L57.0077 45.7368C56.0487 45.1888 55.7155 43.9671 56.2635 43.0081Z" fill="#B7C0CC"/>
<path fill-rule="evenodd" clip-rule="evenodd" d="M103.736 43.0081C103.188 42.049 101.967 41.7158 101.008 42.2639L87.0077 50.2639C86.2203 50.7138 85.8342 51.6372 86.067 52.5137C86.2998 53.3902 87.0931 54.0003 88 54.0003H104C105.105 54.0003 106 53.1049 106 52.0003C106 50.8958 105.105 50.0003 104 50.0003H95.5311L102.992 45.7368C103.951 45.1888 104.285 43.9671 103.736 43.0081Z" fill="#B7C0CC"/>
<path d="M56 52H72V96.1115C72 97.3534 72.2892 98.5783 72.8446 99.6892L74.2764 102.553C74.6088 103.218 74.1253 104 73.382 104H54.618C53.8747 104 53.3912 103.218 53.7236 102.553L55.1554 99.6892C55.7108 98.5783 56 97.3534 56 96.1115V52Z" fill="white"/>
<path d="M88 52H104V96.1115C104 97.3534 104.289 98.5783 104.845 99.6892L106.276 102.553C106.609 103.218 106.125 104 105.382 104H86.618C85.8747 104 85.3912 103.218 85.7236 102.553L87.1554 99.6892C87.7108 98.5783 88 97.3534 88 96.1115V52Z" fill="white"/>
<circle cx="47" cy="98" r="3" fill="white"/>
<circle cx="62.5" cy="110.5" r="1.5" fill="white"/>
<circle cx="76" cy="92" r="1" fill="white"/>
<ellipse cx="114" cy="99" rx="3" ry="2" fill="white"/>
<defs>
<linearGradient id="paint0_linear_1186_63436" x1="80" y1="84" x2="80" y2="144" gradientUnits="userSpaceOnUse">
<stop offset="0.166667" stop-color="#B7C0CC"/>
<stop offset="0.708333" stop-color="#B8C0CD" stop-opacity="0.2"/>
<stop offset="1" stop-color="#E6EBF2" stop-opacity="0"/>
</linearGradient>
</defs>
</svg>
