<svg width="60" height="60" viewBox="0 0 60 60" fill="none" xmlns="http://www.w3.org/2000/svg">
<circle cx="30" cy="30" r="30" fill="#F26224"/>
<path fill-rule="evenodd" clip-rule="evenodd" d="M39.5459 20.454C40.1317 21.0398 40.1317 21.9895 39.5459 22.5753L22.5753 39.5459C21.9895 40.1317 21.0398 40.1317 20.454 39.5459C19.8682 38.9601 19.8682 38.0103 20.454 37.4246L37.4246 20.454C38.0104 19.8682 38.9601 19.8682 39.5459 20.454Z" fill="white"/>
<path fill-rule="evenodd" clip-rule="evenodd" d="M20.454 20.454C21.0398 19.8682 21.9895 19.8682 22.5753 20.454L39.5459 37.4246C40.1317 38.0103 40.1317 38.9601 39.5459 39.5459C38.9601 40.1317 38.0103 40.1317 37.4246 39.5459L20.454 22.5753C19.8682 21.9895 19.8682 21.0398 20.454 20.454Z" fill="white"/>
</svg>
